<?xml version="1.0" encoding="UTF-8" standalone="no"?>
<!DOCTYPE svg PUBLIC "-//W3C//DTD SVG 1.1//EN"
 "http://www.w3.org/Graphics/SVG/1.1/DTD/svg11.dtd">
<!-- Generated by graphviz version 2.43.0 (0)
 -->
<!-- Title: fsm Pages: 1 -->
<svg width="1311pt" height="330pt"
 viewBox="0.00 0.00 1310.79 329.75" xmlns="http://www.w3.org/2000/svg" xmlns:xlink="http://www.w3.org/1999/xlink">
<g id="graph0" class="graph" transform="scale(1 1) rotate(0) translate(4 325.75)">
<title>fsm</title>
<polygon fill="white" stroke="transparent" points="-4,4 -4,-325.75 1306.79,-325.75 1306.79,4 -4,4"/>
<!-- s0 -->
<g id="node1" class="node">
<title>s0</title>
<ellipse fill="lightyellow" stroke="black" cx="75.5" cy="-145.75" rx="21.4" ry="21.4"/>
<ellipse fill="none" stroke="black" cx="75.5" cy="-145.75" rx="25.4" ry="25.4"/>
<text text-anchor="middle" x="75.5" y="-142.05" font-family="monospace" font-size="14.00">s0</text>
</g>
<!-- s0&#45;&gt;s0 -->
<g id="edge1" class="edge">
<title>s0&#45;&gt;s0</title>
<path fill="none" stroke="black" d="M64.66,-168.99C63.47,-179.77 67.09,-189.2 75.5,-189.2 81.02,-189.2 84.47,-185.14 85.86,-179.3"/>
<polygon fill="black" stroke="black" points="89.37,-179.14 86.34,-168.99 82.38,-178.82 89.37,-179.14"/>
<text text-anchor="middle" x="75.5" y="-203.2" font-family="monospace" font-size="10.00"> IN: ?????0 </text>
<text text-anchor="middle" x="75.5" y="-192.2" font-family="monospace" font-size="10.00"> OUT: 000010001000010000 </text>
</g>
<!-- s0&#45;&gt;s0 -->
<g id="edge3" class="edge">
<title>s0&#45;&gt;s0</title>
<path fill="none" stroke="black" d="M58.73,-164.95C47.9,-186.17 53.49,-211.2 75.5,-211.2 94.33,-211.2 101.14,-192.88 95.93,-174.3"/>
<polygon fill="black" stroke="black" points="99.18,-172.98 92.27,-164.95 92.66,-175.54 99.18,-172.98"/>
<text text-anchor="middle" x="75.5" y="-225.2" font-family="monospace" font-size="10.00"> IN: ???1?1 </text>
<text text-anchor="middle" x="75.5" y="-214.2" font-family="monospace" font-size="10.00"> OUT: 000010001000010000 </text>
</g>
<!-- s3 -->
<g id="node2" class="node">
<title>s3</title>
<ellipse fill="lightyellow" stroke="black" cx="363.45" cy="-44.75" rx="21.4" ry="21.4"/>
<ellipse fill="none" stroke="black" cx="363.45" cy="-44.75" rx="25.4" ry="25.4"/>
<text text-anchor="middle" x="363.45" y="-41.05" font-family="monospace" font-size="14.00">s3</text>
</g>
<!-- s0&#45;&gt;s3 -->
<g id="edge2" class="edge">
<title>s0&#45;&gt;s3</title>
<path fill="none" stroke="black" d="M81.61,-120.84C87.15,-100.73 98.15,-73.58 118.95,-59.75 182.82,-17.27 278.2,-27.39 328.53,-36.94"/>
<polygon fill="black" stroke="black" points="328.06,-40.42 338.56,-38.95 329.44,-33.56 328.06,-40.42"/>
<text text-anchor="middle" x="194.45" y="-73.75" font-family="monospace" font-size="10.00"> IN: ???0?1 </text>
<text text-anchor="middle" x="194.45" y="-62.75" font-family="monospace" font-size="10.00"> OUT: 000010001000010010 </text>
</g>
<!-- s3&#45;&gt;s0 -->
<g id="edge10" class="edge">
<title>s3&#45;&gt;s0</title>
<path fill="none" stroke="black" d="M340.08,-55.14C321.61,-63.37 294.54,-74.63 269.95,-81.75 204.39,-100.74 180.6,-80.47 118.95,-109.75 112.88,-112.63 106.97,-116.61 101.59,-120.87"/>
<polygon fill="black" stroke="black" points="98.94,-118.52 93.61,-127.68 103.49,-123.84 98.94,-118.52"/>
<text text-anchor="middle" x="194.45" y="-123.75" font-family="monospace" font-size="10.00"> IN: ?????0 </text>
<text text-anchor="middle" x="194.45" y="-112.75" font-family="monospace" font-size="10.00"> OUT: 000000000000100000 </text>
</g>
<!-- s3&#45;&gt;s3 -->
<g id="edge11" class="edge">
<title>s3&#45;&gt;s3</title>
<path fill="none" stroke="black" d="M340.84,-56.76C323.76,-71.22 331.29,-88.2 363.45,-88.2 390.08,-88.2 399.82,-76.55 392.68,-64.34"/>
<polygon fill="black" stroke="black" points="395.27,-61.98 386.06,-56.76 390,-66.59 395.27,-61.98"/>
<text text-anchor="middle" x="363.45" y="-102.2" font-family="monospace" font-size="10.00"> IN: ??0??1 </text>
<text text-anchor="middle" x="363.45" y="-91.2" font-family="monospace" font-size="10.00"> OUT: 000000000000100010 </text>
</g>
<!-- s2 -->
<g id="node4" class="node">
<title>s2</title>
<ellipse fill="lightyellow" stroke="black" cx="701.45" cy="-102.75" rx="21.4" ry="21.4"/>
<ellipse fill="none" stroke="black" cx="701.45" cy="-102.75" rx="25.4" ry="25.4"/>
<text text-anchor="middle" x="701.45" y="-99.05" font-family="monospace" font-size="14.00">s2</text>
</g>
<!-- s3&#45;&gt;s2 -->
<g id="edge12" class="edge">
<title>s3&#45;&gt;s2</title>
<path fill="none" stroke="black" d="M388.61,-48.92C447.32,-59.05 597.61,-85 665.83,-96.77"/>
<polygon fill="black" stroke="black" points="665.6,-100.28 676.05,-98.54 666.79,-93.39 665.6,-100.28"/>
<text text-anchor="middle" x="532.45" y="-98.75" font-family="monospace" font-size="10.00"> IN: ??1??1 </text>
<text text-anchor="middle" x="532.45" y="-87.75" font-family="monospace" font-size="10.00"> OUT: 000000000000100100 </text>
</g>
<!-- s1 -->
<g id="node3" class="node">
<title>s1</title>
<ellipse fill="lightyellow" stroke="black" cx="1227.29" cy="-241.75" rx="21.4" ry="21.4"/>
<ellipse fill="none" stroke="black" cx="1227.29" cy="-241.75" rx="25.4" ry="25.4"/>
<text text-anchor="middle" x="1227.29" y="-238.05" font-family="monospace" font-size="14.00">s1</text>
</g>
<!-- s1&#45;&gt;s0 -->
<g id="edge4" class="edge">
<title>s1&#45;&gt;s0</title>
<path fill="none" stroke="black" d="M1203.64,-251.2C1162.13,-267.63 1070.74,-299.75 990.4,-299.75 362.45,-299.75 362.45,-299.75 362.45,-299.75 252.47,-299.75 203.72,-325.8 118.95,-255.75 96.72,-237.38 86.1,-205.91 81.05,-181.33"/>
<polygon fill="black" stroke="black" points="84.45,-180.48 79.2,-171.28 77.56,-181.74 84.45,-180.48"/>
<text text-anchor="middle" x="701.45" y="-313.75" font-family="monospace" font-size="10.00"> IN: ?????0 </text>
<text text-anchor="middle" x="701.45" y="-302.75" font-family="monospace" font-size="10.00"> OUT: 100100010100000001 </text>
</g>
<!-- s1&#45;&gt;s0 -->
<g id="edge6" class="edge">
<title>s1&#45;&gt;s0</title>
<path fill="none" stroke="black" d="M1201.84,-241.75C1159,-241.75 1067.59,-241.75 990.4,-241.75 362.45,-241.75 362.45,-241.75 362.45,-241.75 249.84,-241.75 222.01,-217.12 118.95,-171.75 114.53,-169.8 110.03,-167.47 105.68,-165.01"/>
<polygon fill="black" stroke="black" points="107.43,-161.99 97.05,-159.87 103.85,-168 107.43,-161.99"/>
<text text-anchor="middle" x="701.45" y="-255.75" font-family="monospace" font-size="10.00"> IN: ????11 </text>
<text text-anchor="middle" x="701.45" y="-244.75" font-family="monospace" font-size="10.00"> OUT: 100100010100000001 </text>
</g>
<!-- s1&#45;&gt;s1 -->
<g id="edge5" class="edge">
<title>s1&#45;&gt;s1</title>
<path fill="none" stroke="black" d="M1208.02,-258.69C1200.82,-271.81 1207.24,-285.2 1227.29,-285.2 1242.33,-285.2 1249.7,-277.67 1249.41,-268.37"/>
<polygon fill="black" stroke="black" points="1252.74,-267.3 1246.56,-258.69 1246.03,-269.28 1252.74,-267.3"/>
<text text-anchor="middle" x="1227.29" y="-299.2" font-family="monospace" font-size="10.00"> IN: ????01 </text>
<text text-anchor="middle" x="1227.29" y="-288.2" font-family="monospace" font-size="10.00"> OUT: 100100010100001001 </text>
</g>
<!-- s2&#45;&gt;s0 -->
<g id="edge7" class="edge">
<title>s2&#45;&gt;s0</title>
<path fill="none" stroke="black" d="M675.73,-105.02C657.1,-106.71 630.93,-109 607.95,-110.75 420.73,-125.01 196.13,-138.67 111.26,-143.71"/>
<polygon fill="black" stroke="black" points="110.92,-140.22 101.15,-144.3 111.34,-147.21 110.92,-140.22"/>
<text text-anchor="middle" x="363.45" y="-145.75" font-family="monospace" font-size="10.00"> IN: ?????0 </text>
<text text-anchor="middle" x="363.45" y="-134.75" font-family="monospace" font-size="10.00"> OUT: 001001100001000000 </text>
</g>
<!-- s2&#45;&gt;s2 -->
<g id="edge8" class="edge">
<title>s2&#45;&gt;s2</title>
<path fill="none" stroke="black" d="M678.84,-114.76C661.76,-129.22 669.29,-146.2 701.45,-146.2 728.08,-146.2 737.82,-134.55 730.68,-122.34"/>
<polygon fill="black" stroke="black" points="733.27,-119.98 724.06,-114.76 728,-124.59 733.27,-119.98"/>
<text text-anchor="middle" x="701.45" y="-160.2" font-family="monospace" font-size="10.00"> IN: 0????1 </text>
<text text-anchor="middle" x="701.45" y="-149.2" font-family="monospace" font-size="10.00"> OUT: 001001100001000100 </text>
</g>
<!-- s4 -->
<g id="node5" class="node">
<title>s4</title>
<ellipse fill="lightyellow" stroke="black" cx="989.4" cy="-125.75" rx="21.4" ry="21.4"/>
<ellipse fill="none" stroke="black" cx="989.4" cy="-125.75" rx="25.4" ry="25.4"/>
<text text-anchor="middle" x="989.4" y="-122.05" font-family="monospace" font-size="14.00">s4</text>
</g>
<!-- s2&#45;&gt;s4 -->
<g id="edge9" class="edge">
<title>s2&#45;&gt;s4</title>
<path fill="none" stroke="black" d="M726.83,-104.71C777.56,-108.79 894.64,-118.21 953.41,-122.93"/>
<polygon fill="black" stroke="black" points="953.42,-126.45 963.67,-123.76 953.98,-119.47 953.42,-126.45"/>
<text text-anchor="middle" x="870.45" y="-135.75" font-family="monospace" font-size="10.00"> IN: 1????1 </text>
<text text-anchor="middle" x="870.45" y="-124.75" font-family="monospace" font-size="10.00"> OUT: 001001100001000110 </text>
</g>
<!-- s4&#45;&gt;s0 -->
<g id="edge13" class="edge">
<title>s4&#45;&gt;s0</title>
<path fill="none" stroke="black" d="M966.93,-138.5C960.38,-141.94 953.03,-145.37 945.95,-147.75 873.71,-172.01 852.88,-170.28 776.95,-176.75 710.08,-182.44 693.04,-178.4 625.95,-176.75 400.41,-171.19 343.54,-173.11 118.95,-151.75 116.26,-151.49 113.49,-151.19 110.7,-150.86"/>
<polygon fill="black" stroke="black" points="111.07,-147.37 100.7,-149.56 110.16,-154.32 111.07,-147.37"/>
<text text-anchor="middle" x="532.45" y="-189.75" font-family="monospace" font-size="10.00"> IN: ?????0 </text>
<text text-anchor="middle" x="532.45" y="-178.75" font-family="monospace" font-size="10.00"> OUT: 010000000010000000 </text>
</g>
<!-- s4&#45;&gt;s0 -->
<g id="edge15" class="edge">
<title>s4&#45;&gt;s0</title>
<path fill="none" stroke="black" d="M966.26,-114.84C959.81,-111.94 952.69,-108.99 945.95,-106.75 872.89,-82.46 852.29,-84.57 776.95,-68.75 562.76,-23.77 506.64,-2.35 287.95,-10.75 212.67,-13.64 178.63,22.22 118.95,-23.75 92.56,-44.07 82.5,-81.88 78.71,-110.04"/>
<polygon fill="black" stroke="black" points="75.2,-109.97 77.54,-120.31 82.15,-110.77 75.2,-109.97"/>
<text text-anchor="middle" x="532.45" y="-45.75" font-family="monospace" font-size="10.00"> IN: ?1?0?1 </text>
<text text-anchor="middle" x="532.45" y="-34.75" font-family="monospace" font-size="10.00"> OUT: 010000000010000000 </text>
</g>
<!-- s4&#45;&gt;s1 -->
<g id="edge16" class="edge">
<title>s4&#45;&gt;s1</title>
<path fill="none" stroke="black" d="M1014.15,-132.91C1051.8,-144.83 1126.76,-170.92 1183.84,-205.75 1189.47,-209.18 1195.12,-213.34 1200.37,-217.6"/>
<polygon fill="black" stroke="black" points="1198.35,-220.48 1208.24,-224.28 1202.88,-215.14 1198.35,-220.48"/>
<text text-anchor="middle" x="1108.34" y="-219.75" font-family="monospace" font-size="10.00"> IN: ?1?1?1 </text>
<text text-anchor="middle" x="1108.34" y="-208.75" font-family="monospace" font-size="10.00"> OUT: 010000000010001000 </text>
</g>
<!-- s4&#45;&gt;s4 -->
<g id="edge14" class="edge">
<title>s4&#45;&gt;s4</title>
<path fill="none" stroke="black" d="M970.13,-142.69C962.92,-155.81 969.35,-169.2 989.4,-169.2 1004.43,-169.2 1011.81,-161.67 1011.51,-152.37"/>
<polygon fill="black" stroke="black" points="1014.85,-151.3 1008.66,-142.69 1008.13,-153.28 1014.85,-151.3"/>
<text text-anchor="middle" x="989.4" y="-183.2" font-family="monospace" font-size="10.00"> IN: ?0???1 </text>
<text text-anchor="middle" x="989.4" y="-172.2" font-family="monospace" font-size="10.00"> OUT: 010000000010000110 </text>
</g>
</g>
</svg>
