<svg xmlns="http://www.w3.org/2000/svg" xmlns:xlink="http://www.w3.org/1999/xlink" xmlns:s="https://github.com/nturley/netlistsvg" width="935" height="726">
  <style>svg {
    stroke:#000;
    fill:none;
  }
  text {
    fill:#000;
    stroke:none;
    font-size:10px;
    font-weight: bold;
    font-family: "Courier New", monospace;
  }
  .nodelabel {
    text-anchor: middle;
  }
  .inputPortLabel {
    text-anchor: end;
  }
  .splitjoinBody {
    fill:#000;
  }</style>
  <g s:type="and" transform="translate(459,296.5)" s:width="30" s:height="25" id="cell_$logic_and$rtl/uart.v:49$2">
    <s:alias val="$and"/>
    <s:alias val="$logic_and"/>
    <s:alias val="$_AND_"/>
    <path d="M0,0 L0,25 L15,25 A15 12.5 0 0 0 15,0 Z" class="cell_$logic_and$rtl/uart.v:49$2"/>
    <g s:x="0" s:y="5" s:pid="A"/>
    <g s:x="0" s:y="20" s:pid="B"/>
    <g s:x="30" s:y="12.5" s:pid="Y"/>
  </g>
  <g s:type="and" transform="translate(359,459)" s:width="30" s:height="25" id="cell_$logic_and$rtl/uart.v:75$6">
    <s:alias val="$and"/>
    <s:alias val="$logic_and"/>
    <s:alias val="$_AND_"/>
    <path d="M0,0 L0,25 L15,25 A15 12.5 0 0 0 15,0 Z" class="cell_$logic_and$rtl/uart.v:75$6"/>
    <g s:x="0" s:y="5" s:pid="A"/>
    <g s:x="0" s:y="20" s:pid="B"/>
    <g s:x="30" s:y="12.5" s:pid="Y"/>
  </g>
  <g s:type="not" transform="translate(861,194)" s:width="30" s:height="20" id="cell_$logic_not$rtl/uart.v:49$1">
    <s:alias val="$_NOT_"/>
    <s:alias val="$not"/>
    <s:alias val="$logic_not"/>
    <path d="M0,0 L0,20 L20,10 Z" class="cell_$logic_not$rtl/uart.v:49$1"/>
    <circle cx="23" cy="10" r="3" class="cell_$logic_not$rtl/uart.v:49$1"/>
    <g s:x="0" s:y="10" s:pid="A"/>
    <g s:x="25" s:y="10" s:pid="Y"/>
  </g>
  <g s:type="not" transform="translate(861,525)" s:width="30" s:height="20" id="cell_$logic_not$rtl/uart.v:75$5">
    <s:alias val="$_NOT_"/>
    <s:alias val="$not"/>
    <s:alias val="$logic_not"/>
    <path d="M0,0 L0,20 L20,10 Z" class="cell_$logic_not$rtl/uart.v:75$5"/>
    <circle cx="23" cy="10" r="3" class="cell_$logic_not$rtl/uart.v:75$5"/>
    <g s:x="0" s:y="10" s:pid="A"/>
    <g s:x="25" s:y="10" s:pid="Y"/>
  </g>
  <g s:type="dff" transform="translate(861,674)" s:width="30" s:height="40" id="cell_$procdff$281">
    <s:alias val="$dff"/>
    <s:alias val="$_DFF_"/>
    <s:alias val="$_DFF_P_"/>
    <rect width="30" height="40" x="0" y="0" class="cell_$procdff$281"/>
    <path d="M0,35 L5,30 L0,25" class="cell_$procdff$281"/>
    <g s:x="30" s:y="10" s:pid="Q"/>
    <g s:x="0" s:y="30" s:pid="CLK"/>
    <g s:x="0" s:y="30" s:pid="C"/>
    <g s:x="0" s:y="10" s:pid="D"/>
  </g>
  <g s:type="dff" transform="translate(579,236.5)" s:width="30" s:height="40" id="cell_$procdff$282">
    <s:alias val="$dff"/>
    <s:alias val="$_DFF_"/>
    <s:alias val="$_DFF_P_"/>
    <rect width="30" height="40" x="0" y="0" class="cell_$procdff$282"/>
    <path d="M0,35 L5,30 L0,25" class="cell_$procdff$282"/>
    <g s:x="30" s:y="10" s:pid="Q"/>
    <g s:x="0" s:y="30" s:pid="CLK"/>
    <g s:x="0" s:y="30" s:pid="C"/>
    <g s:x="0" s:y="10" s:pid="D"/>
  </g>
  <g s:type="dff" transform="translate(722.25,525)" s:width="30" s:height="40" id="cell_$procdff$283">
    <s:alias val="$dff"/>
    <s:alias val="$_DFF_"/>
    <s:alias val="$_DFF_P_"/>
    <rect width="30" height="40" x="0" y="0" class="cell_$procdff$283"/>
    <path d="M0,35 L5,30 L0,25" class="cell_$procdff$283"/>
    <g s:x="30" s:y="10" s:pid="Q"/>
    <g s:x="0" s:y="30" s:pid="CLK"/>
    <g s:x="0" s:y="30" s:pid="C"/>
    <g s:x="0" s:y="10" s:pid="D"/>
  </g>
  <g s:type="mux" transform="translate(582.3333333333334,610)" s:width="20" s:height="40" id="cell_$procmux$249">
    <s:alias val="$pmux"/>
    <s:alias val="$mux"/>
    <s:alias val="$_MUX_"/>
    <path d="M0,0 L20,10 L20,30 L0,40 Z" class="cell_$procmux$249"/>
    <g s:x="0" s:y="10" s:pid="A"/>
    <g s:x="0" s:y="30" s:pid="B"/>
    <g s:x="10" s:y="35" s:pid="S"/>
    <g s:x="20" s:y="20" s:pid="Y"/>
  </g>
  <g s:type="mux" transform="translate(725.6666666666666,600)" s:width="20" s:height="40" id="cell_$procmux$252">
    <s:alias val="$pmux"/>
    <s:alias val="$mux"/>
    <s:alias val="$_MUX_"/>
    <path d="M0,0 L20,10 L20,30 L0,40 Z" class="cell_$procmux$252"/>
    <g s:x="0" s:y="10" s:pid="A"/>
    <g s:x="0" s:y="30" s:pid="B"/>
    <g s:x="10" s:y="35" s:pid="S"/>
    <g s:x="20" s:y="20" s:pid="Y"/>
  </g>
  <g s:type="mux" transform="translate(465.6666666666667,421.5)" s:width="20" s:height="40" id="cell_$procmux$255">
    <s:alias val="$pmux"/>
    <s:alias val="$mux"/>
    <s:alias val="$_MUX_"/>
    <path d="M0,0 L20,10 L20,30 L0,40 Z" class="cell_$procmux$255"/>
    <g s:x="0" s:y="10" s:pid="A"/>
    <g s:x="0" s:y="30" s:pid="B"/>
    <g s:x="10" s:y="35" s:pid="S"/>
    <g s:x="20" s:y="20" s:pid="Y"/>
  </g>
  <g s:type="mux" transform="translate(524,431.5)" s:width="20" s:height="40" id="cell_$procmux$257">
    <s:alias val="$pmux"/>
    <s:alias val="$mux"/>
    <s:alias val="$_MUX_"/>
    <path d="M0,0 L20,10 L20,30 L0,40 Z" class="cell_$procmux$257"/>
    <g s:x="0" s:y="10" s:pid="A"/>
    <g s:x="0" s:y="30" s:pid="B"/>
    <g s:x="10" s:y="35" s:pid="S"/>
    <g s:x="20" s:y="20" s:pid="Y"/>
  </g>
  <g s:type="mux" transform="translate(582.3333333333334,505)" s:width="20" s:height="40" id="cell_$procmux$260">
    <s:alias val="$pmux"/>
    <s:alias val="$mux"/>
    <s:alias val="$_MUX_"/>
    <path d="M0,0 L20,10 L20,30 L0,40 Z" class="cell_$procmux$260"/>
    <g s:x="0" s:y="10" s:pid="A"/>
    <g s:x="0" s:y="30" s:pid="B"/>
    <g s:x="10" s:y="35" s:pid="S"/>
    <g s:x="20" s:y="20" s:pid="Y"/>
  </g>
  <g s:type="mux" transform="translate(465.6666666666667,195.5)" s:width="20" s:height="40" id="cell_$procmux$263">
    <s:alias val="$pmux"/>
    <s:alias val="$mux"/>
    <s:alias val="$_MUX_"/>
    <path d="M0,0 L20,10 L20,30 L0,40 Z" class="cell_$procmux$263"/>
    <g s:x="0" s:y="10" s:pid="A"/>
    <g s:x="0" s:y="30" s:pid="B"/>
    <g s:x="10" s:y="35" s:pid="S"/>
    <g s:x="20" s:y="20" s:pid="Y"/>
  </g>
  <g s:type="mux" transform="translate(524,185.5)" s:width="20" s:height="40" id="cell_$procmux$266">
    <s:alias val="$pmux"/>
    <s:alias val="$mux"/>
    <s:alias val="$_MUX_"/>
    <path d="M0,0 L20,10 L20,30 L0,40 Z" class="cell_$procmux$266"/>
    <g s:x="0" s:y="10" s:pid="A"/>
    <g s:x="0" s:y="30" s:pid="B"/>
    <g s:x="10" s:y="35" s:pid="S"/>
    <g s:x="20" s:y="20" s:pid="Y"/>
  </g>
  <g s:type="generic" transform="translate(209,55)" s:width="30" s:height="40" id="cell_rx_inst">
    <text x="15" y="-4" class="nodelabel cell_rx_inst" s:attribute="ref">$paramod$2f28e6b50d553ba7480b3b1381415ae016118774\uart_rx</text>
    <rect width="30" height="80" s:generic="body" class="cell_rx_inst"/>
    <g transform="translate(0,10)" s:x="0" s:y="10" s:pid="in0" id="port_rx_inst~clk">
      <text x="-3" y="-4" class="inputPortLabel cell_rx_inst">clk</text>
    </g>
    <g transform="translate(0,30)" s:x="0" s:y="10" s:pid="in0" id="port_rx_inst~resetn">
      <text x="-3" y="-4" class="inputPortLabel cell_rx_inst">resetn</text>
    </g>
    <g transform="translate(0,50)" s:x="0" s:y="10" s:pid="in0" id="port_rx_inst~uart_rx_read">
      <text x="-3" y="-4" class="inputPortLabel cell_rx_inst">uart_rx_read</text>
    </g>
    <g transform="translate(0,70)" s:x="0" s:y="10" s:pid="in0" id="port_rx_inst~uart_rxd">
      <text x="-3" y="-4" class="inputPortLabel cell_rx_inst">uart_rxd</text>
    </g>
    <g transform="translate(30,10)" s:x="30" s:y="10" s:pid="out0" id="port_rx_inst~uart_rts">
      <text x="5" y="-4" style="fill:#000; stroke:none" class="cell_rx_inst">uart_rts</text>
    </g>
    <g transform="translate(30,30)" s:x="30" s:y="10" s:pid="out0" id="port_rx_inst~uart_rx_data">
      <text x="5" y="-4" style="fill:#000; stroke:none" class="cell_rx_inst">uart_rx_data</text>
    </g>
    <g transform="translate(30,50)" s:x="30" s:y="10" s:pid="out0" id="port_rx_inst~uart_rx_valid">
      <text x="5" y="-4" style="fill:#000; stroke:none" class="cell_rx_inst">uart_rx_valid</text>
    </g>
  </g>
  <g s:type="generic" transform="translate(722,238.5)" s:width="30" s:height="40" id="cell_tx_inst">
    <text x="15" y="-4" class="nodelabel cell_tx_inst" s:attribute="ref">$paramod$2f28e6b50d553ba7480b3b1381415ae016118774\uart_tx</text>
    <rect width="30" height="80" s:generic="body" class="cell_tx_inst"/>
    <g transform="translate(0,10)" s:x="0" s:y="10" s:pid="in0" id="port_tx_inst~clk">
      <text x="-3" y="-4" class="inputPortLabel cell_tx_inst">clk</text>
    </g>
    <g transform="translate(0,30)" s:x="0" s:y="10" s:pid="in0" id="port_tx_inst~resetn">
      <text x="-3" y="-4" class="inputPortLabel cell_tx_inst">resetn</text>
    </g>
    <g transform="translate(0,50)" s:x="0" s:y="10" s:pid="in0" id="port_tx_inst~uart_tx_data">
      <text x="-3" y="-4" class="inputPortLabel cell_tx_inst">uart_tx_data</text>
    </g>
    <g transform="translate(0,70)" s:x="0" s:y="10" s:pid="in0" id="port_tx_inst~uart_tx_en">
      <text x="-3" y="-4" class="inputPortLabel cell_tx_inst">uart_tx_en</text>
    </g>
    <g transform="translate(30,10)" s:x="30" s:y="10" s:pid="out0" id="port_tx_inst~uart_tx_busy">
      <text x="5" y="-4" style="fill:#000; stroke:none" class="cell_tx_inst">uart_tx_busy</text>
    </g>
    <g transform="translate(30,30)" s:x="30" s:y="10" s:pid="out0" id="port_tx_inst~uart_txd">
      <text x="5" y="-4" style="fill:#000; stroke:none" class="cell_tx_inst">uart_txd</text>
    </g>
  </g>
  <g s:type="inputExt" transform="translate(54,180.5)" s:width="30" s:height="20" id="cell_clk">
    <text x="15" y="-4" class="nodelabel cell_clk" s:attribute="ref">clk</text>
    <s:alias val="$_inputExt_"/>
    <path d="M0,0 L0,20 L15,20 L30,10 L15,0 Z" class="cell_clk"/>
    <g s:x="28" s:y="10" s:pid="Y"/>
  </g>
  <g s:type="inputExt" transform="translate(54,245.5)" s:width="30" s:height="20" id="cell_rst_n">
    <text x="15" y="-4" class="nodelabel cell_rst_n" s:attribute="ref">rst_n</text>
    <s:alias val="$_inputExt_"/>
    <path d="M0,0 L0,20 L15,20 L30,10 L15,0 Z" class="cell_rst_n"/>
    <g s:x="28" s:y="10" s:pid="Y"/>
  </g>
  <g s:type="inputExt" transform="translate(12,22)" s:width="30" s:height="20" id="cell_SW">
    <text x="15" y="-4" class="nodelabel cell_SW" s:attribute="ref">SW</text>
    <s:alias val="$_inputExt_"/>
    <path d="M0,0 L0,20 L15,20 L30,10 L15,0 Z" class="cell_SW"/>
    <g s:x="28" s:y="10" s:pid="Y"/>
  </g>
  <g s:type="inputExt" transform="translate(54,115.5)" s:width="30" s:height="20" id="cell_uart_rx">
    <text x="15" y="-4" class="nodelabel cell_uart_rx" s:attribute="ref">uart_rx</text>
    <s:alias val="$_inputExt_"/>
    <path d="M0,0 L0,20 L15,20 L30,10 L15,0 Z" class="cell_uart_rx"/>
    <g s:x="28" s:y="10" s:pid="Y"/>
  </g>
  <g s:type="outputExt" transform="translate(861,259)" s:width="30" s:height="20" id="cell_uart_tx">
    <text x="15" y="-4" class="nodelabel cell_uart_tx" s:attribute="ref">uart_tx</text>
    <s:alias val="$_outputExt_"/>
    <path d="M30,0 L30,20 L15,20 L0,10 L15,0 Z" class="cell_uart_tx"/>
    <g s:x="0" s:y="10" s:pid="A"/>
  </g>
  <g s:type="constant" transform="translate(459,366.5)" s:width="30" s:height="20" id="cell_0">
    <text x="15" y="-4" class="nodelabel cell_0" s:attribute="ref">0</text>
    <s:alias val="$_constant_"/>
    <rect width="30" height="20" class="cell_0"/>
    <g s:x="30" s:y="10" s:pid="Y"/>
  </g>
  <g s:type="constant" transform="translate(359,525)" s:width="30" s:height="20" id="cell_1">
    <text x="15" y="-4" class="nodelabel cell_1" s:attribute="ref">1</text>
    <s:alias val="$_constant_"/>
    <rect width="30" height="20" class="cell_1"/>
    <g s:x="30" s:y="10" s:pid="Y"/>
  </g>
  <g s:type="constant" transform="translate(459,140.5)" s:width="30" s:height="20" id="cell_00000000">
    <text x="15" y="-4" class="nodelabel cell_00000000" s:attribute="ref">0x0</text>
    <s:alias val="$_constant_"/>
    <rect width="30" height="20" class="cell_00000000"/>
    <g s:x="30" s:y="10" s:pid="Y"/>
  </g>
  <line x1="752.25" x2="846" y1="535" y2="535" class="net_14"/>
  <line x1="846" x2="846" y1="535" y2="693" class="net_14"/>
  <line x1="846" x2="419" y1="693" y2="693" class="net_14"/>
  <line x1="419" x2="419" y1="693" y2="301.5" class="net_14"/>
  <line x1="419" x2="459" y1="301.5" y2="301.5" class="net_14"/>
  <line x1="752.25" x2="861" y1="535" y2="535" class="net_14"/>
  <line x1="752.25" x2="846" y1="535" y2="535" class="net_14"/>
  <line x1="846" x2="846" y1="535" y2="693" class="net_14"/>
  <line x1="846" x2="619" y1="693" y2="693" class="net_14"/>
  <line x1="619" x2="619" y1="693" y2="671" class="net_14"/>
  <line x1="619" x2="429" y1="671" y2="671" class="net_14"/>
  <line x1="429" x2="429" y1="671" y2="431.5" class="net_14"/>
  <circle cx="619" cy="693" r="2" style="fill:#000" class="net_14"/>
  <circle cx="846" cy="535" r="2" style="fill:#000" class="net_14"/>
  <line x1="429" x2="465.6666666666667" y1="431.5" y2="431.5" class="net_14"/>
  <line x1="886" x2="913" y1="204" y2="204" class="net_15"/>
  <line x1="913" x2="913" y1="204" y2="23" class="net_15"/>
  <line x1="913" x2="409" y1="23" y2="23" class="net_15"/>
  <line x1="409" x2="409" y1="23" y2="316.5" class="net_15"/>
  <line x1="409" x2="459" y1="316.5" y2="316.5" class="net_15"/>
  <line x1="240" x2="329" y1="105.5" y2="105.5" class="net_17"/>
  <line x1="329" x2="329" y1="105.5" y2="464" class="net_17"/>
  <line x1="329" x2="359" y1="464" y2="464" class="net_17"/>
  <line x1="886" x2="913" y1="535" y2="535" class="net_18"/>
  <line x1="913" x2="913" y1="535" y2="494" class="net_18"/>
  <line x1="913" x2="349" y1="494" y2="494" class="net_18"/>
  <line x1="349" x2="349" y1="494" y2="479" class="net_18"/>
  <line x1="349" x2="359" y1="479" y2="479" class="net_18"/>
  <line x1="753" x2="836" y1="249" y2="249" class="net_20"/>
  <line x1="836" x2="836" y1="249" y2="204" class="net_20"/>
  <line x1="836" x2="861" y1="204" y2="204" class="net_20"/>
  <line x1="82" x2="116" y1="190.5" y2="190.5" class="net_2"/>
  <line x1="116" x2="116" y1="190.5" y2="704" class="net_2"/>
  <circle cx="116" cy="190.5" r="2" style="fill:#000" class="net_2"/>
  <line x1="116" x2="861" y1="704" y2="704" class="net_2"/>
  <line x1="82" x2="116" y1="190.5" y2="190.5" class="net_2"/>
  <line x1="116" x2="116" y1="190.5" y2="555" class="net_2"/>
  <line x1="116" x2="339" y1="555" y2="555" class="net_2"/>
  <line x1="339" x2="339" y1="555" y2="266.5" class="net_2"/>
  <circle cx="116" cy="555" r="2" style="fill:#000" class="net_2"/>
  <circle cx="339" cy="555" r="2" style="fill:#000" class="net_2"/>
  <line x1="339" x2="579" y1="266.5" y2="266.5" class="net_2"/>
  <line x1="82" x2="116" y1="190.5" y2="190.5" class="net_2"/>
  <line x1="116" x2="116" y1="190.5" y2="555" class="net_2"/>
  <line x1="116" x2="722.25" y1="555" y2="555" class="net_2"/>
  <line x1="82" x2="116" y1="190.5" y2="190.5" class="net_2"/>
  <line x1="116" x2="116" y1="190.5" y2="65.5" class="net_2"/>
  <circle cx="116" cy="65.5" r="2" style="fill:#000" class="net_2"/>
  <line x1="116" x2="209" y1="65.5" y2="65.5" class="net_2"/>
  <line x1="82" x2="116" y1="190.5" y2="190.5" class="net_2"/>
  <line x1="116" x2="116" y1="190.5" y2="34" class="net_2"/>
  <line x1="116" x2="639" y1="34" y2="34" class="net_2"/>
  <line x1="639" x2="639" y1="34" y2="249" class="net_2"/>
  <line x1="639" x2="722" y1="249" y2="249" class="net_2"/>
  <line x1="745.6666666666666" x2="836" y1="620" y2="620" class="net_21"/>
  <line x1="836" x2="836" y1="620" y2="684" class="net_21"/>
  <line x1="836" x2="861" y1="684" y2="684" class="net_21"/>
  <line x1="544" x2="554" y1="205.5" y2="205.5" class="net_23,24,25,26,27,28,29,30"/>
  <line x1="554" x2="554" y1="205.5" y2="246.5" class="net_23,24,25,26,27,28,29,30"/>
  <line x1="554" x2="579" y1="246.5" y2="246.5" class="net_23,24,25,26,27,28,29,30"/>
  <line x1="602.3333333333334" x2="619" y1="525" y2="525" class="net_39"/>
  <line x1="619" x2="619" y1="525" y2="535" class="net_39"/>
  <line x1="619" x2="722.25" y1="535" y2="535" class="net_39"/>
  <line x1="489" x2="499" y1="376.5" y2="376.5" class="net_59"/>
  <line x1="499" x2="499" y1="376.5" y2="620" class="net_59"/>
  <line x1="499" x2="582.3333333333334" y1="620" y2="620" class="net_59"/>
  <line x1="489" x2="499" y1="376.5" y2="376.5" class="net_59"/>
  <line x1="499" x2="499" y1="376.5" y2="589" class="net_59"/>
  <line x1="499" x2="619" y1="589" y2="589" class="net_59"/>
  <line x1="619" x2="619" y1="589" y2="610" class="net_59"/>
  <circle cx="499" cy="589" r="2" style="fill:#000" class="net_59"/>
  <line x1="619" x2="725.6666666666666" y1="610" y2="610" class="net_59"/>
  <line x1="489" x2="499" y1="376.5" y2="376.5" class="net_59"/>
  <line x1="499" x2="499" y1="376.5" y2="461.5" class="net_59"/>
  <circle cx="499" cy="461.5" r="2" style="fill:#000" class="net_59"/>
  <line x1="499" x2="524" y1="461.5" y2="461.5" class="net_59"/>
  <line x1="489" x2="499" y1="376.5" y2="376.5" class="net_59"/>
  <line x1="499" x2="499" y1="376.5" y2="515" class="net_59"/>
  <circle cx="499" cy="515" r="2" style="fill:#000" class="net_59"/>
  <line x1="499" x2="582.3333333333334" y1="515" y2="515" class="net_59"/>
  <line x1="389" x2="449" y1="535" y2="535" class="net_60"/>
  <line x1="449" x2="449" y1="535" y2="640" class="net_60"/>
  <circle cx="449" cy="535" r="2" style="fill:#000" class="net_60"/>
  <line x1="449" x2="582.3333333333334" y1="640" y2="640" class="net_60"/>
  <line x1="389" x2="449" y1="535" y2="535" class="net_60"/>
  <line x1="449" x2="449" y1="535" y2="451.5" class="net_60"/>
  <line x1="449" x2="465.6666666666667" y1="451.5" y2="451.5" class="net_60"/>
  <line x1="389" x2="399" y1="471.5" y2="471.5" class="net_19"/>
  <line x1="399" x2="399" y1="471.5" y2="682" class="net_19"/>
  <line x1="399" x2="592.3333333333334" y1="682" y2="682" class="net_19"/>
  <circle cx="399" cy="471.5" r="2" style="fill:#000" class="net_19"/>
  <line x1="592.3333333333334" x2="592.3333333333334" y1="682" y2="645" class="net_19"/>
  <line x1="389" x2="475.6666666666667" y1="471.5" y2="471.5" class="net_19"/>
  <line x1="475.6666666666667" x2="475.6666666666667" y1="471.5" y2="456.5" class="net_19"/>
  <line x1="389" x2="399" y1="471.5" y2="471.5" class="net_19"/>
  <line x1="399" x2="399" y1="471.5" y2="245.5" class="net_19"/>
  <line x1="399" x2="475.6666666666667" y1="245.5" y2="245.5" class="net_19"/>
  <line x1="475.6666666666667" x2="475.6666666666667" y1="245.5" y2="230.5" class="net_19"/>
  <line x1="602.3333333333334" x2="725.6666666666666" y1="630" y2="630" class="net_40"/>
  <line x1="82" x2="126" y1="255.5" y2="255.5" class="net_3"/>
  <line x1="126" x2="126" y1="255.5" y2="660" class="net_3"/>
  <line x1="126" x2="735.6666666666666" y1="660" y2="660" class="net_3"/>
  <circle cx="126" cy="255.5" r="2" style="fill:#000" class="net_3"/>
  <line x1="735.6666666666666" x2="735.6666666666666" y1="660" y2="635" class="net_3"/>
  <line x1="82" x2="126" y1="255.5" y2="255.5" class="net_3"/>
  <line x1="126" x2="126" y1="255.5" y2="660" class="net_3"/>
  <line x1="126" x2="439" y1="660" y2="660" class="net_3"/>
  <line x1="439" x2="439" y1="660" y2="600" class="net_3"/>
  <line x1="439" x2="592.3333333333334" y1="600" y2="600" class="net_3"/>
  <circle cx="439" cy="660" r="2" style="fill:#000" class="net_3"/>
  <line x1="592.3333333333334" x2="592.3333333333334" y1="600" y2="540" class="net_3"/>
  <line x1="82" x2="534" y1="255.5" y2="255.5" class="net_3"/>
  <line x1="534" x2="534" y1="255.5" y2="220.5" class="net_3"/>
  <line x1="82" x2="126" y1="255.5" y2="255.5" class="net_3"/>
  <line x1="126" x2="126" y1="255.5" y2="85.5" class="net_3"/>
  <line x1="126" x2="209" y1="85.5" y2="85.5" class="net_3"/>
  <line x1="82" x2="339" y1="255.5" y2="255.5" class="net_3"/>
  <line x1="339" x2="339" y1="255.5" y2="119.5" class="net_3"/>
  <line x1="339" x2="629" y1="119.5" y2="119.5" class="net_3"/>
  <line x1="629" x2="629" y1="119.5" y2="269" class="net_3"/>
  <circle cx="339" cy="255.5" r="2" style="fill:#000" class="net_3"/>
  <line x1="629" x2="722" y1="269" y2="269" class="net_3"/>
  <line x1="485.6666666666667" x2="524" y1="441.5" y2="441.5" class="net_41"/>
  <line x1="489" x2="509" y1="309" y2="309" class="net_16"/>
  <line x1="509" x2="509" y1="309" y2="481.5" class="net_16"/>
  <line x1="509" x2="534" y1="481.5" y2="481.5" class="net_16"/>
  <circle cx="509" cy="309" r="2" style="fill:#000" class="net_16"/>
  <line x1="534" x2="534" y1="481.5" y2="466.5" class="net_16"/>
  <line x1="489" x2="722" y1="309" y2="309" class="net_16"/>
  <line x1="544" x2="554" y1="451.5" y2="451.5" class="net_42"/>
  <line x1="554" x2="554" y1="451.5" y2="535" class="net_42"/>
  <line x1="554" x2="582.3333333333334" y1="535" y2="535" class="net_42"/>
  <line x1="609" x2="619" y1="246.5" y2="246.5" class="net_31,32,33,34,35,36,37,38"/>
  <line x1="619" x2="619" y1="246.5" y2="286.5" class="net_31,32,33,34,35,36,37,38"/>
  <line x1="619" x2="449" y1="286.5" y2="286.5" class="net_31,32,33,34,35,36,37,38"/>
  <line x1="449" x2="449" y1="286.5" y2="205.5" class="net_31,32,33,34,35,36,37,38"/>
  <circle cx="619" cy="286.5" r="2" style="fill:#000" class="net_31,32,33,34,35,36,37,38"/>
  <line x1="449" x2="465.6666666666667" y1="205.5" y2="205.5" class="net_31,32,33,34,35,36,37,38"/>
  <line x1="609" x2="619" y1="246.5" y2="246.5" class="net_31,32,33,34,35,36,37,38"/>
  <line x1="619" x2="619" y1="246.5" y2="289" class="net_31,32,33,34,35,36,37,38"/>
  <line x1="619" x2="722" y1="289" y2="289" class="net_31,32,33,34,35,36,37,38"/>
  <line x1="240" x2="349" y1="85.5" y2="85.5" class="net_43,44,45,46,47,48,49,50"/>
  <line x1="349" x2="349" y1="85.5" y2="225.5" class="net_43,44,45,46,47,48,49,50"/>
  <line x1="349" x2="465.6666666666667" y1="225.5" y2="225.5" class="net_43,44,45,46,47,48,49,50"/>
  <line x1="489" x2="499" y1="150.5" y2="150.5" class="net_65,66,67,68,69,70,71,72"/>
  <line x1="499" x2="499" y1="150.5" y2="195.5" class="net_65,66,67,68,69,70,71,72"/>
  <line x1="499" x2="524" y1="195.5" y2="195.5" class="net_65,66,67,68,69,70,71,72"/>
  <line x1="485.6666666666667" x2="524" y1="215.5" y2="215.5" class="net_51,52,53,54,55,56,57,58"/>
  <line x1="891" x2="923" y1="684" y2="684" class="net_22"/>
  <line x1="923" x2="923" y1="684" y2="12" class="net_22"/>
  <line x1="923" x2="106" y1="12" y2="12" class="net_22"/>
  <line x1="106" x2="106" y1="12" y2="105.5" class="net_22"/>
  <line x1="106" x2="209" y1="105.5" y2="105.5" class="net_22"/>
  <line x1="82" x2="209" y1="125.5" y2="125.5" class="net_12"/>
  <line x1="753" x2="861" y1="269" y2="269" class="net_13"/>
</svg>
