<svg xmlns="http://www.w3.org/2000/svg" xmlns:xlink="http://www.w3.org/1999/xlink" xmlns:s="https://github.com/nturley/netlistsvg" width="1263" height="1399">
  <style>svg {
    stroke:#000;
    fill:none;
  }
  text {
    fill:#000;
    stroke:none;
    font-size:10px;
    font-weight: bold;
    font-family: "Courier New", monospace;
  }
  .nodelabel {
    text-anchor: middle;
  }
  .inputPortLabel {
    text-anchor: end;
  }
  .splitjoinBody {
    fill:#000;
  }</style>
  <g s:type="add" transform="translate(497.3333333333333,689)" s:width="25" s:height="25" id="cell_$add$rtl/uart.v:250$61">
    <s:alias val="$add"/>
    <circle r="12.5" cx="12.5" cy="12.5" class="cell_$add$rtl/uart.v:250$61"/>
    <line x1="7.5" x2="17.5" y1="12.5" y2="12.5" class="cell_$add$rtl/uart.v:250$61"/>
    <line x1="12.5" x2="12.5" y1="7.5" y2="17.5" class="cell_$add$rtl/uart.v:250$61"/>
    <g s:x="3" s:y="5" s:pid="A"/>
    <g s:x="3" s:y="20" s:pid="B"/>
    <g s:x="25" s:y="12.5" s:pid="Y"/>
  </g>
  <g s:type="add" transform="translate(291.3333333333333,831)" s:width="25" s:height="25" id="cell_$add$rtl/uart.v:276$73">
    <s:alias val="$add"/>
    <circle r="12.5" cx="12.5" cy="12.5" class="cell_$add$rtl/uart.v:276$73"/>
    <line x1="7.5" x2="17.5" y1="12.5" y2="12.5" class="cell_$add$rtl/uart.v:276$73"/>
    <line x1="12.5" x2="12.5" y1="7.5" y2="17.5" class="cell_$add$rtl/uart.v:276$73"/>
    <g s:x="3" s:y="5" s:pid="A"/>
    <g s:x="3" s:y="20" s:pid="B"/>
    <g s:x="25" s:y="12.5" s:pid="Y"/>
  </g>
  <g s:type="eq" transform="translate(83,22)" s:width="25" s:height="25" id="cell_$eq$rtl/uart.v:224$42">
    <s:alias val="$eq"/>
    <circle r="12.5" cx="12.5" cy="12.5" class="cell_$eq$rtl/uart.v:224$42"/>
    <line x1="7.5" x2="17.5" y1="10" y2="10" class="cell_$eq$rtl/uart.v:224$42"/>
    <line x1="7.5" x2="17.5" y1="15" y2="15" class="cell_$eq$rtl/uart.v:224$42"/>
    <g s:x="3" s:y="5" s:pid="A"/>
    <g s:x="3" s:y="20" s:pid="B"/>
    <g s:x="25" s:y="12.5" s:pid="Y"/>
  </g>
  <g s:type="eq" transform="translate(560.6666666666666,936)" s:width="25" s:height="25" id="cell_$eq$rtl/uart.v:225$43">
    <s:alias val="$eq"/>
    <circle r="12.5" cx="12.5" cy="12.5" class="cell_$eq$rtl/uart.v:225$43"/>
    <line x1="7.5" x2="17.5" y1="10" y2="10" class="cell_$eq$rtl/uart.v:225$43"/>
    <line x1="7.5" x2="17.5" y1="15" y2="15" class="cell_$eq$rtl/uart.v:225$43"/>
    <g s:x="3" s:y="5" s:pid="A"/>
    <g s:x="3" s:y="20" s:pid="B"/>
    <g s:x="25" s:y="12.5" s:pid="Y"/>
  </g>
  <g s:type="eq" transform="translate(828,986)" s:width="25" s:height="25" id="cell_$eq$rtl/uart.v:235$48">
    <s:alias val="$eq"/>
    <circle r="12.5" cx="12.5" cy="12.5" class="cell_$eq$rtl/uart.v:235$48"/>
    <line x1="7.5" x2="17.5" y1="10" y2="10" class="cell_$eq$rtl/uart.v:235$48"/>
    <line x1="7.5" x2="17.5" y1="15" y2="15" class="cell_$eq$rtl/uart.v:235$48"/>
    <g s:x="3" s:y="5" s:pid="A"/>
    <g s:x="3" s:y="20" s:pid="B"/>
    <g s:x="25" s:y="12.5" s:pid="Y"/>
  </g>
  <g s:type="generic" transform="translate(1117,541.5)" s:width="30" s:height="40" id="cell_$fsm$\fsm_state$127">
    <text x="15" y="-4" class="nodelabel cell_$fsm$\fsm_state$127" s:attribute="ref">$fsm</text>
    <rect width="30" height="60" s:generic="body" class="cell_$fsm$\fsm_state$127"/>
    <g transform="translate(0,10)" s:x="0" s:y="10" s:pid="in0" id="port_$fsm$\fsm_state$127~ARST">
      <text x="-3" y="-4" class="inputPortLabel cell_$fsm$\fsm_state$127">ARST</text>
    </g>
    <g transform="translate(0,30)" s:x="0" s:y="10" s:pid="in0" id="port_$fsm$\fsm_state$127~CLK">
      <text x="-3" y="-4" class="inputPortLabel cell_$fsm$\fsm_state$127">CLK</text>
    </g>
    <g transform="translate(0,50)" s:x="0" s:y="10" s:pid="in0" id="port_$fsm$\fsm_state$127~CTRL_IN">
      <text x="-3" y="-4" class="inputPortLabel cell_$fsm$\fsm_state$127">CTRL_IN</text>
    </g>
    <g transform="translate(30,10)" s:x="30" s:y="10" s:pid="out0" id="port_$fsm$\fsm_state$127~CTRL_OUT">
      <text x="5" y="-4" style="fill:#000; stroke:none" class="cell_$fsm$\fsm_state$127">CTRL_OUT</text>
    </g>
  </g>
  <g s:type="and" transform="translate(913.3333333333334,978.5)" s:width="30" s:height="25" id="cell_$logic_and$rtl/uart.v:235$49">
    <s:alias val="$and"/>
    <s:alias val="$logic_and"/>
    <s:alias val="$_AND_"/>
    <path d="M0,0 L0,25 L15,25 A15 12.5 0 0 0 15,0 Z" class="cell_$logic_and$rtl/uart.v:235$49"/>
    <g s:x="0" s:y="5" s:pid="A"/>
    <g s:x="0" s:y="20" s:pid="B"/>
    <g s:x="30" s:y="12.5" s:pid="Y"/>
  </g>
  <g s:type="and" transform="translate(494,576)" s:width="30" s:height="25" id="cell_$logic_and$rtl/uart.v:249$60">
    <s:alias val="$and"/>
    <s:alias val="$logic_and"/>
    <s:alias val="$_AND_"/>
    <path d="M0,0 L0,25 L15,25 A15 12.5 0 0 0 15,0 Z" class="cell_$logic_and$rtl/uart.v:249$60"/>
    <g s:x="0" s:y="5" s:pid="A"/>
    <g s:x="0" s:y="20" s:pid="B"/>
    <g s:x="30" s:y="12.5" s:pid="Y"/>
  </g>
  <g s:type="and" transform="translate(826.3333333333334,1217)" s:width="30" s:height="25" id="cell_$logic_and$rtl/uart.v:256$64">
    <s:alias val="$and"/>
    <s:alias val="$logic_and"/>
    <s:alias val="$_AND_"/>
    <path d="M0,0 L0,25 L15,25 A15 12.5 0 0 0 15,0 Z" class="cell_$logic_and$rtl/uart.v:256$64"/>
    <g s:x="0" s:y="5" s:pid="A"/>
    <g s:x="0" s:y="20" s:pid="B"/>
    <g s:x="30" s:y="12.5" s:pid="Y"/>
  </g>
  <g s:type="or" transform="translate(559,478.5)" s:width="30" s:height="25" id="cell_$logic_or$rtl/uart.v:247$58">
    <s:alias val="$or"/>
    <s:alias val="$logic_or"/>
    <s:alias val="$_OR_"/>
    <path d="M0,25 L0,25 L15,25 A15 12.5 0 0 0 15,0 L0,0" class="cell_$logic_or$rtl/uart.v:247$58"/>
    <path d="M0,0 A30 25 0 0 1 0,25" class="cell_$logic_or$rtl/uart.v:247$58"/>
    <g s:x="3" s:y="5" s:pid="A"/>
    <g s:x="3" s:y="20" s:pid="B"/>
    <g s:x="30" s:y="12.5" s:pid="Y"/>
  </g>
  <g s:type="or" transform="translate(218,771)" s:width="30" s:height="25" id="cell_$logic_or$rtl/uart.v:273$70">
    <s:alias val="$or"/>
    <s:alias val="$logic_or"/>
    <s:alias val="$_OR_"/>
    <path d="M0,25 L0,25 L15,25 A15 12.5 0 0 0 15,0 L0,0" class="cell_$logic_or$rtl/uart.v:273$70"/>
    <path d="M0,0 A30 25 0 0 1 0,25" class="cell_$logic_or$rtl/uart.v:273$70"/>
    <g s:x="3" s:y="5" s:pid="A"/>
    <g s:x="3" s:y="20" s:pid="B"/>
    <g s:x="30" s:y="12.5" s:pid="Y"/>
  </g>
  <g s:type="or" transform="translate(288,891)" s:width="30" s:height="25" id="cell_$logic_or$rtl/uart.v:273$72">
    <s:alias val="$or"/>
    <s:alias val="$logic_or"/>
    <s:alias val="$_OR_"/>
    <path d="M0,25 L0,25 L15,25 A15 12.5 0 0 0 15,0 L0,0" class="cell_$logic_or$rtl/uart.v:273$72"/>
    <path d="M0,0 A30 25 0 0 1 0,25" class="cell_$logic_or$rtl/uart.v:273$72"/>
    <g s:x="3" s:y="5" s:pid="A"/>
    <g s:x="3" s:y="20" s:pid="B"/>
    <g s:x="30" s:y="12.5" s:pid="Y"/>
  </g>
  <g s:type="or" transform="translate(749,1316)" s:width="30" s:height="25" id="cell_$logic_or$rtl/uart.v:284$78">
    <s:alias val="$or"/>
    <s:alias val="$logic_or"/>
    <s:alias val="$_OR_"/>
    <path d="M0,25 L0,25 L15,25 A15 12.5 0 0 0 15,0 L0,0" class="cell_$logic_or$rtl/uart.v:284$78"/>
    <path d="M0,0 A30 25 0 0 1 0,25" class="cell_$logic_or$rtl/uart.v:284$78"/>
    <g s:x="3" s:y="5" s:pid="A"/>
    <g s:x="3" s:y="20" s:pid="B"/>
    <g s:x="30" s:y="12.5" s:pid="Y"/>
  </g>
  <g s:type="or" transform="translate(826.3333333333334,1331)" s:width="30" s:height="25" id="cell_$logic_or$rtl/uart.v:284$80">
    <s:alias val="$or"/>
    <s:alias val="$logic_or"/>
    <s:alias val="$_OR_"/>
    <path d="M0,25 L0,25 L15,25 A15 12.5 0 0 0 15,0 L0,0" class="cell_$logic_or$rtl/uart.v:284$80"/>
    <path d="M0,0 A30 25 0 0 1 0,25" class="cell_$logic_or$rtl/uart.v:284$80"/>
    <g s:x="3" s:y="5" s:pid="A"/>
    <g s:x="3" s:y="20" s:pid="B"/>
    <g s:x="30" s:y="12.5" s:pid="Y"/>
  </g>
  <g s:type="dff" transform="translate(1117,184)" s:width="30" s:height="40" id="cell_$procdff$120">
    <s:alias val="$dff"/>
    <s:alias val="$_DFF_"/>
    <s:alias val="$_DFF_P_"/>
    <rect width="30" height="40" x="0" y="0" class="cell_$procdff$120"/>
    <path d="M0,35 L5,30 L0,25" class="cell_$procdff$120"/>
    <g s:x="30" s:y="10" s:pid="Q"/>
    <g s:x="0" s:y="30" s:pid="CLK"/>
    <g s:x="0" s:y="30" s:pid="C"/>
    <g s:x="0" s:y="10" s:pid="D"/>
  </g>
  <g s:type="dff" transform="translate(1009,1347)" s:width="30" s:height="40" id="cell_$procdff$121">
    <s:alias val="$dff"/>
    <s:alias val="$_DFF_"/>
    <s:alias val="$_DFF_P_"/>
    <rect width="30" height="40" x="0" y="0" class="cell_$procdff$121"/>
    <path d="M0,35 L5,30 L0,25" class="cell_$procdff$121"/>
    <g s:x="30" s:y="10" s:pid="Q"/>
    <g s:x="0" s:y="30" s:pid="CLK"/>
    <g s:x="0" s:y="30" s:pid="C"/>
    <g s:x="0" s:y="10" s:pid="D"/>
  </g>
  <g s:type="dff" transform="translate(494,833.5)" s:width="30" s:height="40" id="cell_$procdff$122">
    <s:alias val="$dff"/>
    <s:alias val="$_DFF_"/>
    <s:alias val="$_DFF_P_"/>
    <rect width="30" height="40" x="0" y="0" class="cell_$procdff$122"/>
    <path d="M0,35 L5,30 L0,25" class="cell_$procdff$122"/>
    <g s:x="30" s:y="10" s:pid="Q"/>
    <g s:x="0" s:y="30" s:pid="CLK"/>
    <g s:x="0" s:y="30" s:pid="C"/>
    <g s:x="0" s:y="10" s:pid="D"/>
  </g>
  <g s:type="dff" transform="translate(749,1067)" s:width="30" s:height="40" id="cell_$procdff$123">
    <s:alias val="$dff"/>
    <s:alias val="$_DFF_"/>
    <s:alias val="$_DFF_P_"/>
    <rect width="30" height="40" x="0" y="0" class="cell_$procdff$123"/>
    <path d="M0,35 L5,30 L0,25" class="cell_$procdff$123"/>
    <g s:x="30" s:y="10" s:pid="Q"/>
    <g s:x="0" s:y="30" s:pid="CLK"/>
    <g s:x="0" s:y="30" s:pid="C"/>
    <g s:x="0" s:y="10" s:pid="D"/>
  </g>
  <g s:type="dff" transform="translate(1009,1262)" s:width="30" s:height="40" id="cell_$procdff$124">
    <s:alias val="$dff"/>
    <s:alias val="$_DFF_"/>
    <s:alias val="$_DFF_P_"/>
    <rect width="30" height="40" x="0" y="0" class="cell_$procdff$124"/>
    <path d="M0,35 L5,30 L0,25" class="cell_$procdff$124"/>
    <g s:x="30" s:y="10" s:pid="Q"/>
    <g s:x="0" s:y="30" s:pid="CLK"/>
    <g s:x="0" s:y="30" s:pid="C"/>
    <g s:x="0" s:y="10" s:pid="D"/>
  </g>
  <g s:type="dff" transform="translate(749,694)" s:width="30" s:height="40" id="cell_$procdff$125">
    <s:alias val="$dff"/>
    <s:alias val="$_DFF_"/>
    <s:alias val="$_DFF_P_"/>
    <rect width="30" height="40" x="0" y="0" class="cell_$procdff$125"/>
    <path d="M0,35 L5,30 L0,25" class="cell_$procdff$125"/>
    <g s:x="30" s:y="10" s:pid="Q"/>
    <g s:x="0" s:y="30" s:pid="CLK"/>
    <g s:x="0" s:y="30" s:pid="C"/>
    <g s:x="0" s:y="10" s:pid="D"/>
  </g>
  <g s:type="mux" transform="translate(917.6666666666666,1132.5)" s:width="20" s:height="40" id="cell_$procmux$100">
    <s:alias val="$pmux"/>
    <s:alias val="$mux"/>
    <s:alias val="$_MUX_"/>
    <path d="M0,0 L20,10 L20,30 L0,40 Z" class="cell_$procmux$100"/>
    <g s:x="0" s:y="10" s:pid="A"/>
    <g s:x="0" s:y="30" s:pid="B"/>
    <g s:x="10" s:y="35" s:pid="S"/>
    <g s:x="20" s:y="20" s:pid="Y"/>
  </g>
  <g s:type="mux" transform="translate(563.3333333333334,538.5)" s:width="20" s:height="40" id="cell_$procmux$102">
    <s:alias val="$pmux"/>
    <s:alias val="$mux"/>
    <s:alias val="$_MUX_"/>
    <path d="M0,0 L20,10 L20,30 L0,40 Z" class="cell_$procmux$102"/>
    <g s:x="0" s:y="10" s:pid="A"/>
    <g s:x="0" s:y="30" s:pid="B"/>
    <g s:x="10" s:y="35" s:pid="S"/>
    <g s:x="20" s:y="20" s:pid="Y"/>
  </g>
  <g s:type="mux" transform="translate(632.3333333333334,548.5)" s:width="20" s:height="40" id="cell_$procmux$105">
    <s:alias val="$pmux"/>
    <s:alias val="$mux"/>
    <s:alias val="$_MUX_"/>
    <path d="M0,0 L20,10 L20,30 L0,40 Z" class="cell_$procmux$105"/>
    <g s:x="0" s:y="10" s:pid="A"/>
    <g s:x="0" s:y="30" s:pid="B"/>
    <g s:x="10" s:y="35" s:pid="S"/>
    <g s:x="20" s:y="20" s:pid="Y"/>
  </g>
  <g s:type="mux" transform="translate(694,538.5)" s:width="20" s:height="40" id="cell_$procmux$108">
    <s:alias val="$pmux"/>
    <s:alias val="$mux"/>
    <s:alias val="$_MUX_"/>
    <path d="M0,0 L20,10 L20,30 L0,40 Z" class="cell_$procmux$108"/>
    <g s:x="0" s:y="10" s:pid="A"/>
    <g s:x="0" s:y="30" s:pid="B"/>
    <g s:x="10" s:y="35" s:pid="S"/>
    <g s:x="20" s:y="20" s:pid="Y"/>
  </g>
  <g s:type="mux" transform="translate(1012.3333333333334,154)" s:width="20" s:height="40" id="cell_$procmux$84">
    <s:alias val="$pmux"/>
    <s:alias val="$mux"/>
    <s:alias val="$_MUX_"/>
    <path d="M0,0 L20,10 L20,30 L0,40 Z" class="cell_$procmux$84"/>
    <g s:x="0" s:y="10" s:pid="A"/>
    <g s:x="0" s:y="30" s:pid="B"/>
    <g s:x="10" s:y="35" s:pid="S"/>
    <g s:x="20" s:y="20" s:pid="Y"/>
  </g>
  <g s:type="mux" transform="translate(916.6666666666666,1313.5)" s:width="20" s:height="40" id="cell_$procmux$87">
    <s:alias val="$pmux"/>
    <s:alias val="$mux"/>
    <s:alias val="$_MUX_"/>
    <path d="M0,0 L20,10 L20,30 L0,40 Z" class="cell_$procmux$87"/>
    <g s:x="0" s:y="10" s:pid="A"/>
    <g s:x="0" s:y="30" s:pid="B"/>
    <g s:x="10" s:y="35" s:pid="S"/>
    <g s:x="20" s:y="20" s:pid="Y"/>
  </g>
  <g s:type="mux" transform="translate(358.3333333333333,833.5)" s:width="20" s:height="40" id="cell_$procmux$90">
    <s:alias val="$pmux"/>
    <s:alias val="$mux"/>
    <s:alias val="$_MUX_"/>
    <path d="M0,0 L20,10 L20,30 L0,40 Z" class="cell_$procmux$90"/>
    <g s:x="0" s:y="10" s:pid="A"/>
    <g s:x="0" s:y="30" s:pid="B"/>
    <g s:x="10" s:y="35" s:pid="S"/>
    <g s:x="20" s:y="20" s:pid="Y"/>
  </g>
  <g s:type="mux" transform="translate(432.3333333333333,823.5)" s:width="20" s:height="40" id="cell_$procmux$93">
    <s:alias val="$pmux"/>
    <s:alias val="$mux"/>
    <s:alias val="$_MUX_"/>
    <path d="M0,0 L20,10 L20,30 L0,40 Z" class="cell_$procmux$93"/>
    <g s:x="0" s:y="10" s:pid="A"/>
    <g s:x="0" s:y="30" s:pid="B"/>
    <g s:x="10" s:y="35" s:pid="S"/>
    <g s:x="20" s:y="20" s:pid="Y"/>
  </g>
  <g s:type="mux" transform="translate(635.6666666666666,1047)" s:width="20" s:height="40" id="cell_$procmux$95">
    <s:alias val="$pmux"/>
    <s:alias val="$mux"/>
    <s:alias val="$_MUX_"/>
    <path d="M0,0 L20,10 L20,30 L0,40 Z" class="cell_$procmux$95"/>
    <g s:x="0" s:y="10" s:pid="A"/>
    <g s:x="0" s:y="30" s:pid="B"/>
    <g s:x="10" s:y="35" s:pid="S"/>
    <g s:x="20" s:y="20" s:pid="Y"/>
  </g>
  <g s:type="mux" transform="translate(694,1037)" s:width="20" s:height="40" id="cell_$procmux$98">
    <s:alias val="$pmux"/>
    <s:alias val="$mux"/>
    <s:alias val="$_MUX_"/>
    <path d="M0,0 L20,10 L20,30 L0,40 Z" class="cell_$procmux$98"/>
    <g s:x="0" s:y="10" s:pid="A"/>
    <g s:x="0" s:y="30" s:pid="B"/>
    <g s:x="10" s:y="35" s:pid="S"/>
    <g s:x="20" s:y="20" s:pid="Y"/>
  </g>
  <g s:type="inputExt" transform="translate(429,768.5)" s:width="30" s:height="20" id="cell_clk">
    <text x="15" y="-4" class="nodelabel cell_clk" s:attribute="ref">clk</text>
    <s:alias val="$_inputExt_"/>
    <path d="M0,0 L0,20 L15,20 L30,10 L15,0 Z" class="cell_clk"/>
    <g s:x="28" s:y="10" s:pid="Y"/>
  </g>
  <g s:type="inputExt" transform="translate(353,756)" s:width="30" s:height="20" id="cell_resetn">
    <text x="15" y="-4" class="nodelabel cell_resetn" s:attribute="ref">resetn</text>
    <s:alias val="$_inputExt_"/>
    <path d="M0,0 L0,20 L15,20 L30,10 L15,0 Z" class="cell_resetn"/>
    <g s:x="28" s:y="10" s:pid="Y"/>
  </g>
  <g s:type="inputExt" transform="translate(814,184)" s:width="30" s:height="20" id="cell_uart_rxd">
    <text x="15" y="-4" class="nodelabel cell_uart_rxd" s:attribute="ref">uart_rxd</text>
    <s:alias val="$_inputExt_"/>
    <path d="M0,0 L0,20 L15,20 L30,10 L15,0 Z" class="cell_uart_rxd"/>
    <g s:x="28" s:y="10" s:pid="Y"/>
  </g>
  <g s:type="outputExt" transform="translate(1117,1347)" s:width="30" s:height="20" id="cell_uart_rts">
    <text x="15" y="-4" class="nodelabel cell_uart_rts" s:attribute="ref">uart_rts</text>
    <s:alias val="$_outputExt_"/>
    <path d="M30,0 L30,20 L15,20 L0,10 L15,0 Z" class="cell_uart_rts"/>
    <g s:x="0" s:y="10" s:pid="A"/>
  </g>
  <g s:type="inputExt" transform="translate(897,333)" s:width="30" s:height="20" id="cell_uart_rx_read">
    <text x="15" y="-4" class="nodelabel cell_uart_rx_read" s:attribute="ref">uart_rx_read</text>
    <s:alias val="$_inputExt_"/>
    <path d="M0,0 L0,20 L15,20 L30,10 L15,0 Z" class="cell_uart_rx_read"/>
    <g s:x="28" s:y="10" s:pid="Y"/>
  </g>
  <g s:type="outputExt" transform="translate(1117,269)" s:width="30" s:height="20" id="cell_uart_rx_valid">
    <text x="15" y="-4" class="nodelabel cell_uart_rx_valid" s:attribute="ref">uart_rx_valid</text>
    <s:alias val="$_outputExt_"/>
    <path d="M30,0 L30,20 L15,20 L0,10 L15,0 Z" class="cell_uart_rx_valid"/>
    <g s:x="0" s:y="10" s:pid="A"/>
  </g>
  <g s:type="outputExt" transform="translate(1117,1262)" s:width="30" s:height="20" id="cell_uart_rx_data">
    <text x="15" y="-4" class="nodelabel cell_uart_rx_data" s:attribute="ref">uart_rx_data</text>
    <s:alias val="$_outputExt_"/>
    <path d="M30,0 L30,20 L15,20 L0,10 L15,0 Z" class="cell_uart_rx_data"/>
    <g s:x="0" s:y="10" s:pid="A"/>
  </g>
  <g s:type="constant" transform="translate(218,841)" s:width="30" s:height="20" id="cell_1">
    <text x="15" y="-4" class="nodelabel cell_1" s:attribute="ref">1</text>
    <s:alias val="$_constant_"/>
    <rect width="30" height="20" class="cell_1"/>
    <g s:x="30" s:y="10" s:pid="Y"/>
  </g>
  <g s:type="constant" transform="translate(12,32)" s:width="30" s:height="20" id="cell_1010001011000">
    <text x="15" y="-4" class="nodelabel cell_1010001011000" s:attribute="ref">0x1458</text>
    <s:alias val="$_constant_"/>
    <rect width="30" height="20" class="cell_1010001011000"/>
    <g s:x="30" s:y="10" s:pid="Y"/>
  </g>
  <g s:type="constant" transform="translate(494,946)" s:width="30" s:height="20" id="cell_101000101100">
    <text x="15" y="-4" class="nodelabel cell_101000101100" s:attribute="ref">0xa2c</text>
    <s:alias val="$_constant_"/>
    <rect width="30" height="20" class="cell_101000101100"/>
    <g s:x="30" s:y="10" s:pid="Y"/>
  </g>
  <g s:type="constant" transform="translate(749,996)" s:width="30" s:height="20" id="cell_111">
    <text x="15" y="-4" class="nodelabel cell_111" s:attribute="ref">111</text>
    <s:alias val="$_constant_"/>
    <rect width="30" height="20" class="cell_111"/>
    <g s:x="30" s:y="10" s:pid="Y"/>
  </g>
  <g s:type="constant" transform="translate(629,632)" s:width="30" s:height="20" id="cell_0">
    <text x="15" y="-4" class="nodelabel cell_0" s:attribute="ref">0</text>
    <s:alias val="$_constant_"/>
    <rect width="30" height="20" class="cell_0"/>
    <g s:x="30" s:y="10" s:pid="Y"/>
  </g>
  <g s:type="constant" transform="translate(559,423.5)" s:width="30" s:height="20" id="cell_0000">
    <text x="15" y="-4" class="nodelabel cell_0000" s:attribute="ref">0x0</text>
    <s:alias val="$_constant_"/>
    <rect width="30" height="20" class="cell_0000"/>
    <g s:x="30" s:y="10" s:pid="Y"/>
  </g>
  <g s:type="constant" transform="translate(897,106.5)" s:width="30" s:height="20" id="cell_11">
    <text x="15" y="-4" class="nodelabel cell_11" s:attribute="ref">11</text>
    <s:alias val="$_constant_"/>
    <rect width="30" height="20" class="cell_11"/>
    <g s:x="30" s:y="10" s:pid="Y"/>
  </g>
  <g s:type="constant" transform="translate(288,776)" s:width="30" s:height="20" id="cell_00000000000000">
    <text x="15" y="-4" class="nodelabel cell_00000000000000" s:attribute="ref">0x0</text>
    <s:alias val="$_constant_"/>
    <rect width="30" height="20" class="cell_00000000000000"/>
    <g s:x="30" s:y="10" s:pid="Y"/>
  </g>
  <g s:type="join" transform="translate(1014.2,571.5)" s:width="4" s:height="40" id="cell_$join$,3,6,55,52,53,56,">
    <rect width="5" height="120" class="splitjoinBody" s:generic="body"/>
    <s:alias val="$_join_"/>
    <g s:x="5" s:y="20" s:pid="out"/>
    <g transform="translate(0,10)" s:x="0" s:y="10" s:pid="in0">
      <text x="-3" y="-4" class="inputPortLabel">0</text>
    </g>
    <g transform="translate(0,30)" s:x="0" s:y="10" s:pid="in0">
      <text x="-3" y="-4" class="inputPortLabel">1</text>
    </g>
    <g transform="translate(0,50)" s:x="0" s:y="10" s:pid="in0">
      <text x="-3" y="-4" class="inputPortLabel">2</text>
    </g>
    <g transform="translate(0,70)" s:x="0" s:y="10" s:pid="in0">
      <text x="-3" y="-4" class="inputPortLabel">3</text>
    </g>
    <g transform="translate(0,90)" s:x="0" s:y="10" s:pid="in0">
      <text x="-3" y="-4" class="inputPortLabel">4</text>
    </g>
    <g transform="translate(0,110)" s:x="0" s:y="10" s:pid="in0">
      <text x="-3" y="-4" class="inputPortLabel">5</text>
    </g>
  </g>
  <g s:type="join" transform="translate(835,1142)" s:width="4" s:height="40" id="cell_$join$,9,10,11,12,13,14,15,100,">
    <rect width="5" height="40" class="splitjoinBody" s:generic="body"/>
    <s:alias val="$_join_"/>
    <g s:x="5" s:y="20" s:pid="out"/>
    <g transform="translate(0,10)" s:x="0" s:y="10" s:pid="in0">
      <text x="-3" y="-4" class="inputPortLabel">0:6</text>
    </g>
    <g transform="translate(0,30)" s:x="0" s:y="10" s:pid="in0">
      <text x="-3" y="-4" class="inputPortLabel">7</text>
    </g>
  </g>
  <g s:type="join" transform="translate(922,163.5)" s:width="4" s:height="40" id="cell_$join$,83,4,">
    <rect width="5" height="40" class="splitjoinBody" s:generic="body"/>
    <s:alias val="$_join_"/>
    <g s:x="5" s:y="20" s:pid="out"/>
    <g transform="translate(0,10)" s:x="0" s:y="10" s:pid="in0">
      <text x="-3" y="-4" class="inputPortLabel">0</text>
    </g>
    <g transform="translate(0,30)" s:x="0" s:y="10" s:pid="in0">
      <text x="-3" y="-4" class="inputPortLabel">1</text>
    </g>
  </g>
  <g s:type="split" transform="translate(577,352.5)" s:width="5" s:height="40" id="cell_$split$,55,83,">
    <rect width="5" height="40" class="splitjoinBody" s:generic="body"/>
    <s:alias val="$_split_"/>
    <g s:x="0" s:y="20" s:pid="in"/>
    <g transform="translate(4,10)" s:x="4" s:y="10" s:pid="out0">
      <text x="5" y="-4">0</text>
    </g>
    <g transform="translate(4,30)" s:x="4" s:y="10" s:pid="out0">
      <text x="5" y="-4">1</text>
    </g>
  </g>
  <g s:type="split" transform="translate(90,69)" s:width="5" s:height="40" id="cell_$split$,57,58,59,60,61,62,63,64,7,65,66,67,68,69,70,71,72,73,">
    <rect width="5" height="200" class="splitjoinBody" s:generic="body"/>
    <s:alias val="$_split_"/>
    <g s:x="0" s:y="20" s:pid="in"/>
    <g transform="translate(4,10)" s:x="4" s:y="10" s:pid="out0">
      <text x="5" y="-4">11</text>
    </g>
    <g transform="translate(4,30)" s:x="4" s:y="10" s:pid="out0">
      <text x="5" y="-4">12</text>
    </g>
    <g transform="translate(4,50)" s:x="4" s:y="10" s:pid="out0">
      <text x="5" y="-4">9</text>
    </g>
    <g transform="translate(4,70)" s:x="4" s:y="10" s:pid="out0">
      <text x="5" y="-4">10</text>
    </g>
    <g transform="translate(4,90)" s:x="4" s:y="10" s:pid="out0">
      <text x="5" y="-4">13</text>
    </g>
    <g transform="translate(4,110)" s:x="4" s:y="10" s:pid="out0">
      <text x="5" y="-4">14</text>
    </g>
    <g transform="translate(4,130)" s:x="4" s:y="10" s:pid="out0">
      <text x="5" y="-4">15</text>
    </g>
    <g transform="translate(4,150)" s:x="4" s:y="10" s:pid="out0">
      <text x="5" y="-4">16</text>
    </g>
    <g transform="translate(4,170)" s:x="4" s:y="10" s:pid="out0">
      <text x="5" y="-4">17</text>
    </g>
    <g transform="translate(4,190)" s:x="4" s:y="10" s:pid="out0">
      <text x="5" y="-4">8</text>
    </g>
  </g>
  <g s:type="split" transform="translate(755,1142)" s:width="5" s:height="40" id="cell_$split$,8,9,10,11,12,13,14,15,">
    <rect width="5" height="20" class="splitjoinBody" s:generic="body"/>
    <s:alias val="$_split_"/>
    <g s:x="0" s:y="20" s:pid="in"/>
    <g transform="translate(4,10)" s:x="4" s:y="10" s:pid="out0">
      <text x="5" y="-4">1:7</text>
    </g>
  </g>
  <line x1="779" x2="789" y1="704" y2="704" class="net_16,17,18,19"/>
  <line x1="789" x2="789" y1="704" y2="976" class="net_16,17,18,19"/>
  <line x1="789" x2="479" y1="976" y2="976" class="net_16,17,18,19"/>
  <line x1="479" x2="479" y1="976" y2="694" class="net_16,17,18,19"/>
  <circle cx="789" cy="976" r="2" style="fill:#000" class="net_16,17,18,19"/>
  <line x1="479" x2="500.3333333333333" y1="694" y2="694" class="net_16,17,18,19"/>
  <line x1="779" x2="789" y1="704" y2="704" class="net_16,17,18,19"/>
  <line x1="789" x2="789" y1="704" y2="991" class="net_16,17,18,19"/>
  <line x1="789" x2="831" y1="991" y2="991" class="net_16,17,18,19"/>
  <line x1="779" x2="789" y1="704" y2="704" class="net_16,17,18,19"/>
  <line x1="789" x2="789" y1="704" y2="684" class="net_16,17,18,19"/>
  <line x1="789" x2="534" y1="684" y2="684" class="net_16,17,18,19"/>
  <line x1="534" x2="534" y1="684" y2="548.5" class="net_16,17,18,19"/>
  <circle cx="789" cy="704" r="2" style="fill:#000" class="net_16,17,18,19"/>
  <line x1="534" x2="563.3333333333334" y1="548.5" y2="548.5" class="net_16,17,18,19"/>
  <line x1="248" x2="258" y1="851" y2="851" class="net_136"/>
  <line x1="258" x2="258" y1="851" y2="709" class="net_136"/>
  <circle cx="258" cy="851" r="2" style="fill:#000" class="net_136"/>
  <line x1="258" x2="500.3333333333333" y1="709" y2="709" class="net_136"/>
  <line x1="248" x2="294.3333333333333" y1="851" y2="851" class="net_136"/>
  <line x1="248" x2="258" y1="851" y2="851" class="net_136"/>
  <line x1="258" x2="258" y1="851" y2="1303" class="net_136"/>
  <line x1="258" x2="872" y1="1303" y2="1303" class="net_136"/>
  <line x1="872" x2="872" y1="1303" y2="1323.5" class="net_136"/>
  <line x1="872" x2="916.6666666666666" y1="1323.5" y2="1323.5" class="net_136"/>
  <line x1="524" x2="534" y1="843.5" y2="843.5" class="net_24,25,26,27,28,29,30,31,32,33,34,35,36,37"/>
  <line x1="534" x2="534" y1="843.5" y2="926" class="net_24,25,26,27,28,29,30,31,32,33,34,35,36,37"/>
  <line x1="534" x2="268" y1="926" y2="926" class="net_24,25,26,27,28,29,30,31,32,33,34,35,36,37"/>
  <line x1="268" x2="268" y1="926" y2="836" class="net_24,25,26,27,28,29,30,31,32,33,34,35,36,37"/>
  <circle cx="534" cy="926" r="2" style="fill:#000" class="net_24,25,26,27,28,29,30,31,32,33,34,35,36,37"/>
  <line x1="268" x2="294.3333333333333" y1="836" y2="836" class="net_24,25,26,27,28,29,30,31,32,33,34,35,36,37"/>
  <line x1="524" x2="534" y1="843.5" y2="843.5" class="net_24,25,26,27,28,29,30,31,32,33,34,35,36,37"/>
  <line x1="534" x2="534" y1="843.5" y2="735" class="net_24,25,26,27,28,29,30,31,32,33,34,35,36,37"/>
  <line x1="534" x2="68" y1="735" y2="735" class="net_24,25,26,27,28,29,30,31,32,33,34,35,36,37"/>
  <line x1="68" x2="68" y1="735" y2="27" class="net_24,25,26,27,28,29,30,31,32,33,34,35,36,37"/>
  <circle cx="534" cy="843.5" r="2" style="fill:#000" class="net_24,25,26,27,28,29,30,31,32,33,34,35,36,37"/>
  <line x1="68" x2="86" y1="27" y2="27" class="net_24,25,26,27,28,29,30,31,32,33,34,35,36,37"/>
  <line x1="524" x2="534" y1="843.5" y2="843.5" class="net_24,25,26,27,28,29,30,31,32,33,34,35,36,37"/>
  <line x1="534" x2="534" y1="843.5" y2="941" class="net_24,25,26,27,28,29,30,31,32,33,34,35,36,37"/>
  <line x1="534" x2="563.6666666666666" y1="941" y2="941" class="net_24,25,26,27,28,29,30,31,32,33,34,35,36,37"/>
  <line x1="42" x2="86" y1="42" y2="42" class="net_138,139,140,141,142,143,144,145,146,147,148,149,150"/>
  <line x1="524" x2="563.6666666666666" y1="956" y2="956" class="net_151,152,153,154,155,156,157,158,159,160,161,162"/>
  <line x1="779" x2="831" y1="1006" y2="1006" class="net_163,164,165"/>
  <line x1="659" x2="669" y1="642" y2="642" class="net_166"/>
  <line x1="669" x2="669" y1="642" y2="290" class="net_166"/>
  <line x1="669" x2="1059" y1="290" y2="290" class="net_166"/>
  <line x1="1059" x2="1059" y1="290" y2="552" class="net_166"/>
  <circle cx="669" cy="642" r="2" style="fill:#000" class="net_166"/>
  <line x1="1059" x2="1117" y1="552" y2="552" class="net_166"/>
  <line x1="659" x2="669" y1="642" y2="642" class="net_166"/>
  <line x1="669" x2="669" y1="642" y2="1047" class="net_166"/>
  <line x1="669" x2="694" y1="1047" y2="1047" class="net_166"/>
  <line x1="457" x2="469" y1="778.5" y2="778.5" class="net_2"/>
  <line x1="469" x2="469" y1="778.5" y2="301" class="net_2"/>
  <line x1="469" x2="1049" y1="301" y2="301" class="net_2"/>
  <line x1="1049" x2="1049" y1="301" y2="572" class="net_2"/>
  <circle cx="469" cy="778.5" r="2" style="fill:#000" class="net_2"/>
  <circle cx="469" cy="301" r="2" style="fill:#000" class="net_2"/>
  <line x1="1049" x2="1117" y1="572" y2="572" class="net_2"/>
  <line x1="457" x2="469" y1="778.5" y2="778.5" class="net_2"/>
  <line x1="469" x2="469" y1="778.5" y2="214" class="net_2"/>
  <line x1="469" x2="1117" y1="214" y2="214" class="net_2"/>
  <line x1="457" x2="469" y1="778.5" y2="778.5" class="net_2"/>
  <line x1="469" x2="469" y1="778.5" y2="1377" class="net_2"/>
  <line x1="469" x2="1009" y1="1377" y2="1377" class="net_2"/>
  <line x1="457" x2="469" y1="778.5" y2="778.5" class="net_2"/>
  <line x1="469" x2="469" y1="778.5" y2="863.5" class="net_2"/>
  <circle cx="469" cy="863.5" r="2" style="fill:#000" class="net_2"/>
  <line x1="469" x2="494" y1="863.5" y2="863.5" class="net_2"/>
  <line x1="457" x2="469" y1="778.5" y2="778.5" class="net_2"/>
  <line x1="469" x2="469" y1="778.5" y2="1097" class="net_2"/>
  <circle cx="469" cy="1097" r="2" style="fill:#000" class="net_2"/>
  <line x1="469" x2="749" y1="1097" y2="1097" class="net_2"/>
  <line x1="457" x2="469" y1="778.5" y2="778.5" class="net_2"/>
  <line x1="469" x2="469" y1="778.5" y2="1292" class="net_2"/>
  <circle cx="469" cy="1292" r="2" style="fill:#000" class="net_2"/>
  <line x1="469" x2="1009" y1="1292" y2="1292" class="net_2"/>
  <line x1="457" x2="469" y1="778.5" y2="778.5" class="net_2"/>
  <line x1="469" x2="469" y1="778.5" y2="724" class="net_2"/>
  <circle cx="469" cy="724" r="2" style="fill:#000" class="net_2"/>
  <line x1="469" x2="749" y1="724" y2="724" class="net_2"/>
  <line x1="1020.2" x2="1117" y1="592" y2="592" class="net_3,6,55,52,53,56"/>
  <line x1="108" x2="208" y1="34.5" y2="34.5" class="net_52"/>
  <line x1="208" x2="208" y1="34.5" y2="673" class="net_52"/>
  <line x1="208" x2="872" y1="673" y2="673" class="net_52"/>
  <line x1="872" x2="872" y1="673" y2="983.5" class="net_52"/>
  <circle cx="208" cy="673" r="2" style="fill:#000" class="net_52"/>
  <line x1="872" x2="913.3333333333334" y1="983.5" y2="983.5" class="net_52"/>
  <line x1="108" x2="208" y1="34.5" y2="34.5" class="net_52"/>
  <line x1="208" x2="208" y1="34.5" y2="673" class="net_52"/>
  <line x1="208" x2="419" y1="673" y2="673" class="net_52"/>
  <line x1="419" x2="419" y1="673" y2="596" class="net_52"/>
  <circle cx="419" cy="673" r="2" style="fill:#000" class="net_52"/>
  <line x1="419" x2="494" y1="596" y2="596" class="net_52"/>
  <line x1="108" x2="208" y1="34.5" y2="34.5" class="net_52"/>
  <line x1="208" x2="208" y1="34.5" y2="1237" class="net_52"/>
  <line x1="208" x2="826.3333333333334" y1="1237" y2="1237" class="net_52"/>
  <line x1="108" x2="208" y1="34.5" y2="34.5" class="net_52"/>
  <line x1="208" x2="208" y1="34.5" y2="776" class="net_52"/>
  <circle cx="208" cy="776" r="2" style="fill:#000" class="net_52"/>
  <line x1="208" x2="221" y1="776" y2="776" class="net_52"/>
  <line x1="108" x2="208" y1="34.5" y2="34.5" class="net_52"/>
  <line x1="208" x2="208" y1="34.5" y2="402.5" class="net_52"/>
  <line x1="208" x2="979" y1="402.5" y2="402.5" class="net_52"/>
  <line x1="979" x2="979" y1="402.5" y2="642" class="net_52"/>
  <circle cx="208" cy="402.5" r="2" style="fill:#000" class="net_52"/>
  <line x1="979" x2="1014.2" y1="642" y2="642" class="net_52"/>
  <line x1="853" x2="913.3333333333334" y1="998.5" y2="998.5" class="net_54"/>
  <line x1="94.5" x2="94.5" y1="79" y2="57" class="net_67"/>
  <line x1="94.5" x2="198" y1="57" y2="57" class="net_67"/>
  <line x1="198" x2="198" y1="57" y2="581" class="net_67"/>
  <line x1="198" x2="494" y1="581" y2="581" class="net_67"/>
  <line x1="95" x2="178" y1="99.5" y2="99.5" class="net_68"/>
  <line x1="178" x2="178" y1="99.5" y2="1222" class="net_68"/>
  <line x1="178" x2="826.3333333333334" y1="1222" y2="1222" class="net_68"/>
  <line x1="95" x2="188" y1="119.5" y2="119.5" class="net_65"/>
  <line x1="188" x2="188" y1="119.5" y2="483.5" class="net_65"/>
  <line x1="188" x2="562" y1="483.5" y2="483.5" class="net_65"/>
  <line x1="95" x2="168" y1="139.5" y2="139.5" class="net_66"/>
  <line x1="168" x2="168" y1="139.5" y2="498.5" class="net_66"/>
  <line x1="168" x2="562" y1="498.5" y2="498.5" class="net_66"/>
  <line x1="95" x2="158" y1="159.5" y2="159.5" class="net_69"/>
  <line x1="158" x2="158" y1="159.5" y2="791" class="net_69"/>
  <line x1="158" x2="221" y1="791" y2="791" class="net_69"/>
  <line x1="248" x2="278" y1="783.5" y2="783.5" class="net_77"/>
  <line x1="278" x2="278" y1="783.5" y2="896" class="net_77"/>
  <line x1="278" x2="291" y1="896" y2="896" class="net_77"/>
  <line x1="95" x2="148" y1="179.5" y2="179.5" class="net_70"/>
  <line x1="148" x2="148" y1="179.5" y2="911" class="net_70"/>
  <line x1="148" x2="291" y1="911" y2="911" class="net_70"/>
  <line x1="95" x2="138" y1="199.5" y2="199.5" class="net_71"/>
  <line x1="138" x2="138" y1="199.5" y2="1314" class="net_71"/>
  <line x1="138" x2="724" y1="1314" y2="1314" class="net_71"/>
  <line x1="724" x2="724" y1="1314" y2="1321" class="net_71"/>
  <line x1="724" x2="752" y1="1321" y2="1321" class="net_71"/>
  <line x1="95" x2="128" y1="219.5" y2="219.5" class="net_72"/>
  <line x1="128" x2="128" y1="219.5" y2="1336" class="net_72"/>
  <line x1="128" x2="752" y1="1336" y2="1336" class="net_72"/>
  <line x1="779" x2="789" y1="1328.5" y2="1328.5" class="net_79"/>
  <line x1="789" x2="789" y1="1328.5" y2="1336" class="net_79"/>
  <line x1="789" x2="829.3333333333334" y1="1336" y2="1336" class="net_79"/>
  <line x1="95" x2="118" y1="239.5" y2="239.5" class="net_73"/>
  <line x1="118" x2="118" y1="239.5" y2="1351" class="net_73"/>
  <line x1="118" x2="829.3333333333334" y1="1351" y2="1351" class="net_73"/>
  <line x1="1032.3333333333335" x2="1049" y1="174" y2="174" class="net_81,82"/>
  <line x1="1049" x2="1049" y1="174" y2="194" class="net_81,82"/>
  <line x1="1049" x2="1117" y1="194" y2="194" class="net_81,82"/>
  <line x1="936.6666666666666" x2="979" y1="1333.5" y2="1333.5" class="net_84"/>
  <line x1="979" x2="979" y1="1333.5" y2="1357" class="net_84"/>
  <line x1="979" x2="1009" y1="1357" y2="1357" class="net_84"/>
  <line x1="452.3333333333333" x2="494" y1="843.5" y2="843.5" class="net_85,86,87,88,89,90,91,92,93,94,95,96,97,98"/>
  <line x1="714" x2="724" y1="1057" y2="1057" class="net_99"/>
  <line x1="724" x2="724" y1="1057" y2="1077" class="net_99"/>
  <line x1="724" x2="749" y1="1077" y2="1077" class="net_99"/>
  <line x1="937.6666666666666" x2="979" y1="1152.5" y2="1152.5" class="net_101,102,103,104,105,106,107,108"/>
  <line x1="979" x2="979" y1="1152.5" y2="1272" class="net_101,102,103,104,105,106,107,108"/>
  <line x1="979" x2="1009" y1="1272" y2="1272" class="net_101,102,103,104,105,106,107,108"/>
  <line x1="714" x2="724" y1="558.5" y2="558.5" class="net_109,110,111,112"/>
  <line x1="724" x2="724" y1="558.5" y2="704" class="net_109,110,111,112"/>
  <line x1="724" x2="749" y1="704" y2="704" class="net_109,110,111,112"/>
  <line x1="1039" x2="1049" y1="1272" y2="1272" class="net_8,9,10,11,12,13,14,15"/>
  <line x1="1049" x2="1049" y1="1272" y2="1252" class="net_8,9,10,11,12,13,14,15"/>
  <line x1="1049" x2="872" y1="1252" y2="1252" class="net_8,9,10,11,12,13,14,15"/>
  <line x1="872" x2="872" y1="1252" y2="1142.5" class="net_8,9,10,11,12,13,14,15"/>
  <circle cx="872" cy="1252" r="2" style="fill:#000" class="net_8,9,10,11,12,13,14,15"/>
  <circle cx="1049" cy="1272" r="2" style="fill:#000" class="net_8,9,10,11,12,13,14,15"/>
  <line x1="872" x2="917.6666666666666" y1="1142.5" y2="1142.5" class="net_8,9,10,11,12,13,14,15"/>
  <line x1="1039" x2="1117" y1="1272" y2="1272" class="net_8,9,10,11,12,13,14,15"/>
  <line x1="1039" x2="1049" y1="1272" y2="1272" class="net_8,9,10,11,12,13,14,15"/>
  <line x1="1049" x2="1049" y1="1272" y2="1252" class="net_8,9,10,11,12,13,14,15"/>
  <line x1="1049" x2="755.5" y1="1252" y2="1252" class="net_8,9,10,11,12,13,14,15"/>
  <line x1="755.5" x2="755.5" y1="1252" y2="1163" class="net_8,9,10,11,12,13,14,15"/>
  <line x1="841" x2="917.6666666666666" y1="1162.5" y2="1162.5" class="net_9,10,11,12,13,14,15,100"/>
  <line x1="856.3333333333334" x2="927.6666666666666" y1="1229.5" y2="1229.5" class="net_75"/>
  <line x1="927.6666666666666" x2="927.6666666666666" y1="1229.5" y2="1167.5" class="net_75"/>
  <line x1="522.3333333333333" x2="544" y1="701.5" y2="701.5" class="net_20,21,22,23"/>
  <line x1="544" x2="544" y1="701.5" y2="568.5" class="net_20,21,22,23"/>
  <line x1="544" x2="563.3333333333334" y1="568.5" y2="568.5" class="net_20,21,22,23"/>
  <line x1="524" x2="573.3333333333334" y1="588.5" y2="588.5" class="net_74"/>
  <line x1="573.3333333333334" x2="573.3333333333334" y1="588.5" y2="573.5" class="net_74"/>
  <line x1="583.3333333333334" x2="632.3333333333334" y1="558.5" y2="558.5" class="net_113,114,115,116"/>
  <line x1="589" x2="619" y1="433.5" y2="433.5" class="net_167,168,169,170"/>
  <line x1="619" x2="619" y1="433.5" y2="578.5" class="net_167,168,169,170"/>
  <circle cx="619" cy="433.5" r="2" style="fill:#000" class="net_167,168,169,170"/>
  <line x1="619" x2="632.3333333333334" y1="578.5" y2="578.5" class="net_167,168,169,170"/>
  <line x1="589" x2="679" y1="433.5" y2="433.5" class="net_167,168,169,170"/>
  <line x1="679" x2="679" y1="433.5" y2="548.5" class="net_167,168,169,170"/>
  <line x1="679" x2="694" y1="548.5" y2="548.5" class="net_167,168,169,170"/>
  <line x1="589" x2="599" y1="491" y2="491" class="net_76"/>
  <line x1="599" x2="599" y1="491" y2="601" class="net_76"/>
  <line x1="599" x2="642.3333333333334" y1="601" y2="601" class="net_76"/>
  <line x1="642.3333333333334" x2="642.3333333333334" y1="601" y2="583.5" class="net_76"/>
  <line x1="652.3333333333334" x2="694" y1="568.5" y2="568.5" class="net_117,118,119,120"/>
  <line x1="381" x2="409" y1="766" y2="766" class="net_3"/>
  <line x1="409" x2="409" y1="766" y2="611" class="net_3"/>
  <line x1="409" x2="704" y1="611" y2="611" class="net_3"/>
  <circle cx="409" cy="766" r="2" style="fill:#000" class="net_3"/>
  <circle cx="409" cy="611" r="2" style="fill:#000" class="net_3"/>
  <line x1="704" x2="704" y1="611" y2="573.5" class="net_3"/>
  <line x1="381" x2="409" y1="766" y2="766" class="net_3"/>
  <line x1="409" x2="409" y1="766" y2="268" class="net_3"/>
  <line x1="409" x2="1022.3333333333334" y1="268" y2="268" class="net_3"/>
  <line x1="1022.3333333333334" x2="1022.3333333333334" y1="268" y2="189" class="net_3"/>
  <line x1="381" x2="409" y1="766" y2="766" class="net_3"/>
  <line x1="409" x2="409" y1="766" y2="1366" class="net_3"/>
  <line x1="409" x2="926.6666666666666" y1="1366" y2="1366" class="net_3"/>
  <line x1="926.6666666666666" x2="926.6666666666666" y1="1366" y2="1348.5" class="net_3"/>
  <line x1="381" x2="409" y1="766" y2="766" class="net_3"/>
  <line x1="409" x2="409" y1="766" y2="873.5" class="net_3"/>
  <line x1="409" x2="442.3333333333333" y1="873.5" y2="873.5" class="net_3"/>
  <circle cx="409" cy="873.5" r="2" style="fill:#000" class="net_3"/>
  <line x1="442.3333333333333" x2="442.3333333333333" y1="873.5" y2="858.5" class="net_3"/>
  <line x1="381" x2="409" y1="766" y2="766" class="net_3"/>
  <line x1="409" x2="409" y1="766" y2="1325" class="net_3"/>
  <line x1="409" x2="704" y1="1325" y2="1325" class="net_3"/>
  <circle cx="409" cy="1325" r="2" style="fill:#000" class="net_3"/>
  <line x1="704" x2="704" y1="1325" y2="1072" class="net_3"/>
  <line x1="381" x2="409" y1="766" y2="766" class="net_3"/>
  <line x1="409" x2="409" y1="766" y2="312" class="net_3"/>
  <line x1="409" x2="1014.7" y1="312" y2="312" class="net_3"/>
  <circle cx="409" cy="312" r="2" style="fill:#000" class="net_3"/>
  <line x1="1014.7" x2="1014.7" y1="312" y2="581.5" class="net_3"/>
  <line x1="927" x2="979" y1="116.5" y2="116.5" class="net_175,176"/>
  <line x1="979" x2="979" y1="116.5" y2="164" class="net_175,176"/>
  <line x1="979" x2="1012.3333333333334" y1="164" y2="164" class="net_175,176"/>
  <line x1="928" x2="1012.3333333333334" y1="184" y2="184" class="net_83,4"/>
  <line x1="856.3333333333334" x2="916.6666666666666" y1="1343.5" y2="1343.5" class="net_80"/>
  <line x1="316.3333333333333" x2="358.3333333333333" y1="843.5" y2="843.5" class="net_38,39,40,41,42,43,44,45,46,47,48,49,50,51"/>
  <line x1="318" x2="328" y1="786" y2="786" class="net_178,179,180,181,182,183,184,185,186,187,188,189,190,191"/>
  <line x1="328" x2="328" y1="786" y2="863.5" class="net_178,179,180,181,182,183,184,185,186,187,188,189,190,191"/>
  <circle cx="328" cy="786" r="2" style="fill:#000" class="net_178,179,180,181,182,183,184,185,186,187,188,189,190,191"/>
  <line x1="328" x2="358.3333333333333" y1="863.5" y2="863.5" class="net_178,179,180,181,182,183,184,185,186,187,188,189,190,191"/>
  <line x1="318" x2="399" y1="786" y2="786" class="net_178,179,180,181,182,183,184,185,186,187,188,189,190,191"/>
  <line x1="399" x2="399" y1="786" y2="833.5" class="net_178,179,180,181,182,183,184,185,186,187,188,189,190,191"/>
  <line x1="399" x2="432.3333333333333" y1="833.5" y2="833.5" class="net_178,179,180,181,182,183,184,185,186,187,188,189,190,191"/>
  <line x1="318" x2="368.3333333333333" y1="903.5" y2="903.5" class="net_78"/>
  <line x1="368.3333333333333" x2="368.3333333333333" y1="903.5" y2="868.5" class="net_78"/>
  <line x1="378.3333333333333" x2="432.3333333333333" y1="853.5" y2="853.5" class="net_121,122,123,124,125,126,127,128,129,130,131,132,133,134"/>
  <line x1="779" x2="789" y1="1077" y2="1077" class="net_100"/>
  <line x1="789" x2="789" y1="1077" y2="1026" class="net_100"/>
  <line x1="789" x2="619" y1="1026" y2="1026" class="net_100"/>
  <line x1="619" x2="619" y1="1026" y2="1057" class="net_100"/>
  <circle cx="789" cy="1077" r="2" style="fill:#000" class="net_100"/>
  <line x1="619" x2="635.6666666666666" y1="1057" y2="1057" class="net_100"/>
  <line x1="779" x2="789" y1="1077" y2="1077" class="net_100"/>
  <line x1="789" x2="789" y1="1077" y2="1172.5" class="net_100"/>
  <line x1="789" x2="835" y1="1172.5" y2="1172.5" class="net_100"/>
  <line x1="582" x2="609" y1="363" y2="363" class="net_55"/>
  <line x1="609" x2="609" y1="363" y2="1077" class="net_55"/>
  <circle cx="609" cy="363" r="2" style="fill:#000" class="net_55"/>
  <line x1="609" x2="635.6666666666666" y1="1077" y2="1077" class="net_55"/>
  <line x1="582" x2="989" y1="363" y2="363" class="net_55"/>
  <line x1="989" x2="989" y1="363" y2="622" class="net_55"/>
  <line x1="989" x2="1014.2" y1="622" y2="622" class="net_55"/>
  <line x1="585.6666666666666" x2="599" y1="948.5" y2="948.5" class="net_53"/>
  <line x1="599" x2="599" y1="948.5" y2="1212" class="net_53"/>
  <line x1="599" x2="645.6666666666666" y1="1212" y2="1212" class="net_53"/>
  <circle cx="599" cy="948.5" r="2" style="fill:#000" class="net_53"/>
  <line x1="645.6666666666666" x2="645.6666666666666" y1="1212" y2="1082" class="net_53"/>
  <line x1="585.6666666666666" x2="599" y1="948.5" y2="948.5" class="net_53"/>
  <line x1="599" x2="599" y1="948.5" y2="662" class="net_53"/>
  <line x1="599" x2="1014.2" y1="662" y2="662" class="net_53"/>
  <line x1="655.6666666666666" x2="694" y1="1067" y2="1067" class="net_135"/>
  <line x1="1039" x2="1117" y1="1357" y2="1357" class="net_5"/>
  <line x1="94.5" x2="94.5" y1="260" y2="279" class="net_7"/>
  <line x1="94.5" x2="1117" y1="279" y2="279" class="net_7"/>
  <line x1="925" x2="999" y1="343" y2="343" class="net_6"/>
  <line x1="999" x2="999" y1="343" y2="602" class="net_6"/>
  <line x1="999" x2="1014.2" y1="602" y2="602" class="net_6"/>
  <line x1="943.3333333333334" x2="1014.7" y1="991" y2="991" class="net_56"/>
  <line x1="1014.7" x2="1014.7" y1="991" y2="682.5" class="net_56"/>
  <line x1="760" x2="835" y1="1152.5" y2="1152.5" class="net_9,10,11,12,13,14,15"/>
  <line x1="582" x2="599" y1="383" y2="383" class="net_83"/>
  <line x1="599" x2="599" y1="383" y2="163" class="net_83"/>
  <line x1="599" x2="872" y1="163" y2="163" class="net_83"/>
  <line x1="872" x2="872" y1="163" y2="174" class="net_83"/>
  <line x1="872" x2="922" y1="174" y2="174" class="net_83"/>
  <line x1="842" x2="922" y1="194" y2="194" class="net_4"/>
  <line x1="1147" x2="1241" y1="194" y2="194" class="net_55,83"/>
  <line x1="1241" x2="1241" y1="194" y2="85.5" class="net_55,83"/>
  <line x1="1241" x2="544" y1="85.5" y2="85.5" class="net_55,83"/>
  <line x1="544" x2="544" y1="85.5" y2="373" class="net_55,83"/>
  <line x1="544" x2="577" y1="373" y2="373" class="net_55,83"/>
  <line x1="1148" x2="1251" y1="552" y2="552" class="net_57,58,59,60,61,62,63,64,7,65,66,67,68,69,70,71,72,73"/>
  <line x1="1251" x2="1251" y1="552" y2="12" class="net_57,58,59,60,61,62,63,64,7,65,66,67,68,69,70,71,72,73"/>
  <line x1="1251" x2="58" y1="12" y2="12" class="net_57,58,59,60,61,62,63,64,7,65,66,67,68,69,70,71,72,73"/>
  <line x1="58" x2="58" y1="12" y2="89.5" class="net_57,58,59,60,61,62,63,64,7,65,66,67,68,69,70,71,72,73"/>
  <line x1="58" x2="90" y1="89.5" y2="89.5" class="net_57,58,59,60,61,62,63,64,7,65,66,67,68,69,70,71,72,73"/>
</svg>
